%TF.GenerationSoftware,KiCad,Pcbnew,8.0.4*%
%TF.CreationDate,2024-12-07T18:54:13+01:00*%
%TF.ProjectId,usb_c_cable_tester,7573625f-635f-4636-9162-6c655f746573,2.2*%
%TF.SameCoordinates,Original*%
%TF.FileFunction,Copper,L1,Top*%
%TF.FilePolarity,Positive*%
%FSLAX46Y46*%
G04 Gerber Fmt 4.6, Leading zero omitted, Abs format (unit mm)*
G04 Created by KiCad (PCBNEW 8.0.4) date 2024-12-07 18:54:13*
%MOMM*%
%LPD*%
G01*
G04 APERTURE LIST*
G04 Aperture macros list*
%AMRoundRect*
0 Rectangle with rounded corners*
0 $1 Rounding radius*
0 $2 $3 $4 $5 $6 $7 $8 $9 X,Y pos of 4 corners*
0 Add a 4 corners polygon primitive as box body*
4,1,4,$2,$3,$4,$5,$6,$7,$8,$9,$2,$3,0*
0 Add four circle primitives for the rounded corners*
1,1,$1+$1,$2,$3*
1,1,$1+$1,$4,$5*
1,1,$1+$1,$6,$7*
1,1,$1+$1,$8,$9*
0 Add four rect primitives between the rounded corners*
20,1,$1+$1,$2,$3,$4,$5,0*
20,1,$1+$1,$4,$5,$6,$7,0*
20,1,$1+$1,$6,$7,$8,$9,0*
20,1,$1+$1,$8,$9,$2,$3,0*%
G04 Aperture macros list end*
%TA.AperFunction,SMDPad,CuDef*%
%ADD10R,1.350000X0.400000*%
%TD*%
%TA.AperFunction,ComponentPad*%
%ADD11O,1.900000X1.100000*%
%TD*%
%TA.AperFunction,ComponentPad*%
%ADD12C,1.250000*%
%TD*%
%TA.AperFunction,SMDPad,CuDef*%
%ADD13RoundRect,0.218750X-0.218750X-0.256250X0.218750X-0.256250X0.218750X0.256250X-0.218750X0.256250X0*%
%TD*%
%TA.AperFunction,SMDPad,CuDef*%
%ADD14RoundRect,0.200000X-0.200000X-0.275000X0.200000X-0.275000X0.200000X0.275000X-0.200000X0.275000X0*%
%TD*%
%TA.AperFunction,SMDPad,CuDef*%
%ADD15R,2.200000X0.500000*%
%TD*%
%TA.AperFunction,SMDPad,CuDef*%
%ADD16R,2.200000X2.000000*%
%TD*%
%TA.AperFunction,ComponentPad*%
%ADD17C,6.000000*%
%TD*%
%TA.AperFunction,SMDPad,CuDef*%
%ADD18R,0.700000X0.300000*%
%TD*%
%TA.AperFunction,ComponentPad*%
%ADD19C,0.650000*%
%TD*%
%TA.AperFunction,ComponentPad*%
%ADD20O,1.400000X0.800000*%
%TD*%
%TA.AperFunction,SMDPad,CuDef*%
%ADD21RoundRect,0.250000X-0.475000X0.250000X-0.475000X-0.250000X0.475000X-0.250000X0.475000X0.250000X0*%
%TD*%
%TA.AperFunction,ComponentPad*%
%ADD22C,1.500000*%
%TD*%
%TA.AperFunction,ComponentPad*%
%ADD23C,1.200000*%
%TD*%
%TA.AperFunction,ComponentPad*%
%ADD24C,3.400000*%
%TD*%
%TA.AperFunction,SMDPad,CuDef*%
%ADD25R,3.800000X4.200000*%
%TD*%
%TA.AperFunction,ComponentPad*%
%ADD26C,1.300000*%
%TD*%
%TA.AperFunction,ComponentPad*%
%ADD27O,2.700000X1.300000*%
%TD*%
%TA.AperFunction,ComponentPad*%
%ADD28O,2.400000X1.300000*%
%TD*%
%TA.AperFunction,ViaPad*%
%ADD29C,0.800000*%
%TD*%
%TA.AperFunction,ViaPad*%
%ADD30C,0.400000*%
%TD*%
%TA.AperFunction,Conductor*%
%ADD31C,0.250000*%
%TD*%
%TA.AperFunction,Conductor*%
%ADD32C,0.150000*%
%TD*%
%TA.AperFunction,Conductor*%
%ADD33C,0.254000*%
%TD*%
G04 APERTURE END LIST*
D10*
%TO.P,J3,1,VBUS*%
%TO.N,+3V3*%
X138450000Y-98300000D03*
%TO.P,J3,2,D-*%
X138450000Y-97650000D03*
%TO.P,J3,3,D+*%
X138450000Y-97000000D03*
%TO.P,J3,4,ID*%
%TO.N,unconnected-(J3-ID-Pad4)*%
X138450000Y-96350000D03*
%TO.P,J3,5,GND*%
%TO.N,+3V3*%
X138450000Y-95700000D03*
D11*
%TO.P,J3,6,Shield*%
X141100000Y-100600000D03*
D12*
X138450000Y-99500000D03*
X138450000Y-94500000D03*
D11*
X141100000Y-93400000D03*
%TD*%
D13*
%TO.P,D21,1,K*%
%TO.N,GND*%
X65250000Y-121750000D03*
%TO.P,D21,2,A*%
%TO.N,Net-(D21-A)*%
X66825000Y-121750000D03*
%TD*%
D14*
%TO.P,R4,1*%
%TO.N,/TX2-*%
X77175000Y-113709086D03*
%TO.P,R4,2*%
%TO.N,Net-(D4-A)*%
X78825000Y-113709086D03*
%TD*%
D15*
%TO.P,J5,1,VBUS*%
%TO.N,+3V3*%
X135050000Y-120100000D03*
%TO.P,J5,2,D-*%
X135050000Y-119300000D03*
%TO.P,J5,3,D+*%
X135050000Y-118500000D03*
%TO.P,J5,4,ID*%
%TO.N,unconnected-(J5-ID-Pad4)*%
X135050000Y-117700000D03*
%TO.P,J5,5,GND*%
%TO.N,+3V3*%
X135050000Y-116900000D03*
D16*
%TO.P,J5,6,Shield*%
X135450000Y-122950000D03*
X140950000Y-122950000D03*
X135450000Y-114050000D03*
X140950000Y-114050000D03*
%TD*%
D14*
%TO.P,R25,1*%
%TO.N,/GND_B12*%
X77175000Y-74600000D03*
%TO.P,R25,2*%
%TO.N,Net-(D25-A)*%
X78825000Y-74600000D03*
%TD*%
D13*
%TO.P,D25,1,K*%
%TO.N,GND*%
X77212500Y-76173913D03*
%TO.P,D25,2,A*%
%TO.N,Net-(D25-A)*%
X78787500Y-76173913D03*
%TD*%
D14*
%TO.P,R7,1*%
%TO.N,/TX1+*%
X120135000Y-78945454D03*
%TO.P,R7,2*%
%TO.N,Net-(D7-A)*%
X121785000Y-78945454D03*
%TD*%
%TO.P,R20,1*%
%TO.N,/VBUS_A4*%
X120135000Y-87636362D03*
%TO.P,R20,2*%
%TO.N,Net-(D20-A)*%
X121785000Y-87636362D03*
%TD*%
%TO.P,R16,1*%
%TO.N,/CC1*%
X120135000Y-91981816D03*
%TO.P,R16,2*%
%TO.N,Net-(D16-A)*%
X121785000Y-91981816D03*
%TD*%
D13*
%TO.P,D11,1,K*%
%TO.N,GND*%
X77212500Y-102260869D03*
%TO.P,D11,2,A*%
%TO.N,Net-(D11-A)*%
X78787500Y-102260869D03*
%TD*%
%TO.P,D8,1,K*%
%TO.N,GND*%
X120212500Y-84869565D03*
%TO.P,D8,2,A*%
%TO.N,Net-(D8-A)*%
X121787500Y-84869565D03*
%TD*%
D14*
%TO.P,R8,1*%
%TO.N,/TX1-*%
X120135000Y-83290908D03*
%TO.P,R8,2*%
%TO.N,Net-(D8-A)*%
X121785000Y-83290908D03*
%TD*%
%TO.P,R17,1*%
%TO.N,/SBU1*%
X120135000Y-105018178D03*
%TO.P,R17,2*%
%TO.N,Net-(D17-A)*%
X121785000Y-105018178D03*
%TD*%
%TO.P,R5,1*%
%TO.N,/RX2+*%
X120135000Y-118054540D03*
%TO.P,R5,2*%
%TO.N,Net-(D5-A)*%
X121785000Y-118054540D03*
%TD*%
D17*
%TO.P,REF\u002A\u002A,1*%
%TO.N,N/C*%
X61500000Y-77250000D03*
%TD*%
D18*
%TO.P,J2,A1,GND*%
%TO.N,/GND_A1*%
X65310000Y-106240000D03*
%TO.P,J2,A2,TX1+*%
%TO.N,/TX1+*%
X65310000Y-106740000D03*
%TO.P,J2,A3,TX1-*%
%TO.N,/TX1-*%
X65310000Y-107240000D03*
%TO.P,J2,A4,VBUS*%
%TO.N,/VBUS_A4*%
X65310000Y-107740000D03*
%TO.P,J2,A5,CC1*%
%TO.N,/CC1*%
X65310000Y-108240000D03*
%TO.P,J2,A6,D+*%
%TO.N,/D+_A*%
X65310000Y-108740000D03*
%TO.P,J2,A7,D-*%
%TO.N,/D-_A*%
X65310000Y-109240000D03*
%TO.P,J2,A8,SBU1*%
%TO.N,/SBU1*%
X65310000Y-109740000D03*
%TO.P,J2,A9,VBUS*%
%TO.N,/VBUS_A9*%
X65310000Y-110240000D03*
%TO.P,J2,A10,RX2-*%
%TO.N,/RX2-*%
X65310000Y-110740000D03*
%TO.P,J2,A11,RX2+*%
%TO.N,/RX2+*%
X65310000Y-111240000D03*
%TO.P,J2,A12,GND*%
%TO.N,/GND_A12*%
X65310000Y-111740000D03*
D19*
%TO.P,J2,B1,GND*%
%TO.N,/GND_B1*%
X64000000Y-111790000D03*
%TO.P,J2,B2,TX2+*%
%TO.N,/TX2+*%
X63300000Y-111390000D03*
%TO.P,J2,B3,TX2-*%
%TO.N,/TX2-*%
X63300000Y-110590000D03*
%TO.P,J2,B4,VBUS*%
%TO.N,/VBUS_B4*%
X64000000Y-110190000D03*
%TO.P,J2,B5,CC2*%
%TO.N,/CC2*%
X63300000Y-109790000D03*
%TO.P,J2,B6,D+*%
%TO.N,/D+_B*%
X64000000Y-109390000D03*
%TO.P,J2,B7,D-*%
%TO.N,/D-_B*%
X64000000Y-108590000D03*
%TO.P,J2,B8,SBU2*%
%TO.N,/SBU2*%
X63300000Y-108190000D03*
%TO.P,J2,B9,VBUS*%
%TO.N,/VBUS_B9*%
X64000000Y-107790000D03*
%TO.P,J2,B10,RX1-*%
%TO.N,/RX1-*%
X63300000Y-107390000D03*
%TO.P,J2,B11,RX1+*%
%TO.N,/RX1+*%
X63300000Y-106590000D03*
%TO.P,J2,B12,GND*%
%TO.N,/GND_B12*%
X64000000Y-106190000D03*
D20*
%TO.P,J2,S1,SHIELD*%
%TO.N,/SHLD*%
X59000000Y-104500000D03*
X63400000Y-104860000D03*
X63400000Y-113120000D03*
X59000000Y-113480000D03*
%TD*%
D13*
%TO.P,D5,1,K*%
%TO.N,GND*%
X120212500Y-119652173D03*
%TO.P,D5,2,A*%
%TO.N,Net-(D5-A)*%
X121787500Y-119652173D03*
%TD*%
%TO.P,D9,1,K*%
%TO.N,GND*%
X77212500Y-80521739D03*
%TO.P,D9,2,A*%
%TO.N,Net-(D9-A)*%
X78787500Y-80521739D03*
%TD*%
D21*
%TO.P,C1,1*%
%TO.N,+3V3*%
X94500000Y-87050000D03*
%TO.P,C1,2*%
%TO.N,GND*%
X94500000Y-88950000D03*
%TD*%
D13*
%TO.P,D12,1,K*%
%TO.N,GND*%
X120212500Y-97913043D03*
%TO.P,D12,2,A*%
%TO.N,Net-(D12-A)*%
X121787500Y-97913043D03*
%TD*%
%TO.P,D16,1,K*%
%TO.N,GND*%
X120212500Y-93565217D03*
%TO.P,D16,2,A*%
%TO.N,Net-(D16-A)*%
X121787500Y-93565217D03*
%TD*%
D14*
%TO.P,R24,1*%
%TO.N,/GND_B1*%
X77175000Y-122400000D03*
%TO.P,R24,2*%
%TO.N,Net-(D24-A)*%
X78825000Y-122400000D03*
%TD*%
D13*
%TO.P,D10,1,K*%
%TO.N,GND*%
X77212500Y-84869565D03*
%TO.P,D10,2,A*%
%TO.N,Net-(D10-A)*%
X78787500Y-84869565D03*
%TD*%
%TO.P,D4,1,K*%
%TO.N,GND*%
X77212500Y-115304347D03*
%TO.P,D4,2,A*%
%TO.N,Net-(D4-A)*%
X78787500Y-115304347D03*
%TD*%
D14*
%TO.P,R14,1*%
%TO.N,/D-_A*%
X120135000Y-100672724D03*
%TO.P,R14,2*%
%TO.N,Net-(D14-A)*%
X121785000Y-100672724D03*
%TD*%
D13*
%TO.P,D14,1,K*%
%TO.N,GND*%
X120212500Y-102260869D03*
%TO.P,D14,2,A*%
%TO.N,Net-(D14-A)*%
X121787500Y-102260869D03*
%TD*%
D14*
%TO.P,R1,1*%
%TO.N,/VBUS_B4*%
X77175000Y-109363632D03*
%TO.P,R1,2*%
%TO.N,Net-(D1-A)*%
X78825000Y-109363632D03*
%TD*%
D18*
%TO.P,J1,A1,GND*%
%TO.N,+3V3*%
X134250000Y-109500000D03*
%TO.P,J1,A2,TX1+*%
X134250000Y-109000000D03*
%TO.P,J1,A3,TX1-*%
X134250000Y-108500000D03*
%TO.P,J1,A4,VBUS*%
X134250000Y-108000000D03*
%TO.P,J1,A5,CC1*%
X134250000Y-107500000D03*
%TO.P,J1,A6,D+*%
X134250000Y-107000000D03*
%TO.P,J1,A7,D-*%
X134250000Y-106500000D03*
%TO.P,J1,A8,SBU1*%
X134250000Y-106000000D03*
%TO.P,J1,A9,VBUS*%
X134250000Y-105500000D03*
%TO.P,J1,A10,RX2-*%
X134250000Y-105000000D03*
%TO.P,J1,A11,RX2+*%
X134250000Y-104500000D03*
%TO.P,J1,A12,GND*%
X134250000Y-104000000D03*
D19*
%TO.P,J1,B1,GND*%
X135560000Y-103950000D03*
%TO.P,J1,B2,TX2+*%
X136260000Y-104350000D03*
%TO.P,J1,B3,TX2-*%
X136260000Y-105150000D03*
%TO.P,J1,B4,VBUS*%
X135560000Y-105550000D03*
%TO.P,J1,B5,CC2*%
X136260000Y-105950000D03*
%TO.P,J1,B6,D+*%
X135560000Y-106350000D03*
%TO.P,J1,B7,D-*%
X135560000Y-107150000D03*
%TO.P,J1,B8,SBU2*%
X136260000Y-107550000D03*
%TO.P,J1,B9,VBUS*%
X135560000Y-107950000D03*
%TO.P,J1,B10,RX1-*%
X136260000Y-108350000D03*
%TO.P,J1,B11,RX1+*%
X136260000Y-109150000D03*
%TO.P,J1,B12,GND*%
X135560000Y-109550000D03*
D20*
%TO.P,J1,S1,SHIELD*%
X140560000Y-111240000D03*
X136160000Y-110880000D03*
X136160000Y-102620000D03*
X140560000Y-102260000D03*
%TD*%
D14*
%TO.P,R13,1*%
%TO.N,/D-_B*%
X77175000Y-96327270D03*
%TO.P,R13,2*%
%TO.N,Net-(D13-A)*%
X78825000Y-96327270D03*
%TD*%
D13*
%TO.P,D2,1,K*%
%TO.N,GND*%
X77212500Y-89217391D03*
%TO.P,D2,2,A*%
%TO.N,Net-(D2-A)*%
X78787500Y-89217391D03*
%TD*%
%TO.P,D15,1,K*%
%TO.N,GND*%
X77212500Y-106608695D03*
%TO.P,D15,2,A*%
%TO.N,Net-(D15-A)*%
X78787500Y-106608695D03*
%TD*%
D22*
%TO.P,J4,1,VBUS*%
%TO.N,+3V3*%
X130435000Y-82250000D03*
%TO.P,J4,2,D-*%
X130435000Y-84750000D03*
%TO.P,J4,3,D+*%
X132445000Y-84750000D03*
%TO.P,J4,4,GND*%
X132445000Y-82250000D03*
D23*
%TO.P,J4,5,SSTX-*%
X128445000Y-87750000D03*
%TO.P,J4,6,SSTX+*%
X128445000Y-86000000D03*
%TO.P,J4,7,DRAIN*%
X128445000Y-83500000D03*
%TO.P,J4,8,SSRX-*%
X128445000Y-81000000D03*
%TO.P,J4,9,SSRX+*%
X128445000Y-79250000D03*
D24*
%TO.P,J4,10,SHIELD*%
X135145000Y-89520000D03*
X135145000Y-77480000D03*
%TD*%
D13*
%TO.P,D22,1,K*%
%TO.N,GND*%
X120212500Y-76173913D03*
%TO.P,D22,2,A*%
%TO.N,Net-(D22-A)*%
X121787500Y-76173913D03*
%TD*%
D25*
%TO.P,BT1,1,+*%
%TO.N,+3V3*%
X100000000Y-87110000D03*
%TO.P,BT1,2,-*%
%TO.N,GND*%
X100000000Y-115890000D03*
%TD*%
D14*
%TO.P,R18,1*%
%TO.N,/SBU2*%
X77175000Y-91981816D03*
%TO.P,R18,2*%
%TO.N,Net-(D18-A)*%
X78825000Y-91981816D03*
%TD*%
%TO.P,R23,1*%
%TO.N,/GND_A12*%
X120175000Y-122400000D03*
%TO.P,R23,2*%
%TO.N,Net-(D23-A)*%
X121825000Y-122400000D03*
%TD*%
D13*
%TO.P,D6,1,K*%
%TO.N,GND*%
X120212500Y-115304347D03*
%TO.P,D6,2,A*%
%TO.N,Net-(D6-A)*%
X121787500Y-115304347D03*
%TD*%
D26*
%TO.P,J6,1,VBUS*%
%TO.N,/VBUS_A4*%
X66000000Y-88500000D03*
%TO.P,J6,2,D-*%
%TO.N,/D-_A*%
X66000000Y-91000000D03*
%TO.P,J6,3,D+*%
%TO.N,/D+_A*%
X66000000Y-93000000D03*
%TO.P,J6,4,GND*%
%TO.N,/GND_A1*%
X66000000Y-95500000D03*
%TO.P,J6,5,SSRX-*%
%TO.N,/RX2-*%
X67500000Y-96000000D03*
%TO.P,J6,6,SSRX+*%
%TO.N,/RX2+*%
X67500000Y-94000000D03*
%TO.P,J6,7,DRAIN*%
%TO.N,/GND_A12*%
X67500000Y-92000000D03*
%TO.P,J6,8,SSTX-*%
%TO.N,/TX1-*%
X67500000Y-90000000D03*
%TO.P,J6,9,SSTX+*%
%TO.N,/TX1+*%
X67500000Y-88000000D03*
D27*
%TO.P,J6,10,SHIELD*%
%TO.N,/SHLD*%
X66500000Y-85600000D03*
D28*
X59900000Y-85600000D03*
D27*
X66500000Y-98400000D03*
D28*
X59900000Y-98400000D03*
%TD*%
D13*
%TO.P,D20,1,K*%
%TO.N,GND*%
X120212500Y-89217391D03*
%TO.P,D20,2,A*%
%TO.N,Net-(D20-A)*%
X121787500Y-89217391D03*
%TD*%
D14*
%TO.P,R2,1*%
%TO.N,/VBUS_B9*%
X77175000Y-87636362D03*
%TO.P,R2,2*%
%TO.N,Net-(D2-A)*%
X78825000Y-87636362D03*
%TD*%
D13*
%TO.P,D17,1,K*%
%TO.N,GND*%
X120212500Y-106608695D03*
%TO.P,D17,2,A*%
%TO.N,Net-(D17-A)*%
X121787500Y-106608695D03*
%TD*%
D14*
%TO.P,R10,1*%
%TO.N,/RX1-*%
X77175000Y-83290908D03*
%TO.P,R10,2*%
%TO.N,Net-(D10-A)*%
X78825000Y-83290908D03*
%TD*%
%TO.P,R3,1*%
%TO.N,/TX2+*%
X77175000Y-118054540D03*
%TO.P,R3,2*%
%TO.N,Net-(D3-A)*%
X78825000Y-118054540D03*
%TD*%
D13*
%TO.P,D23,1,K*%
%TO.N,GND*%
X120212500Y-124000000D03*
%TO.P,D23,2,A*%
%TO.N,Net-(D23-A)*%
X121787500Y-124000000D03*
%TD*%
D14*
%TO.P,R19,1*%
%TO.N,/VBUS_A9*%
X120135000Y-109363632D03*
%TO.P,R19,2*%
%TO.N,Net-(D19-A)*%
X121785000Y-109363632D03*
%TD*%
%TO.P,R12,1*%
%TO.N,/D+_A*%
X120135000Y-96327270D03*
%TO.P,R12,2*%
%TO.N,Net-(D12-A)*%
X121785000Y-96327270D03*
%TD*%
%TO.P,R9,1*%
%TO.N,/RX1+*%
X77175000Y-78945454D03*
%TO.P,R9,2*%
%TO.N,Net-(D9-A)*%
X78825000Y-78945454D03*
%TD*%
D13*
%TO.P,D1,1,K*%
%TO.N,GND*%
X77212500Y-110956521D03*
%TO.P,D1,2,A*%
%TO.N,Net-(D1-A)*%
X78787500Y-110956521D03*
%TD*%
D14*
%TO.P,R22,1*%
%TO.N,/GND_A1*%
X120175000Y-74600000D03*
%TO.P,R22,2*%
%TO.N,Net-(D22-A)*%
X121825000Y-74600000D03*
%TD*%
D13*
%TO.P,D19,1,K*%
%TO.N,GND*%
X120212500Y-110956521D03*
%TO.P,D19,2,A*%
%TO.N,Net-(D19-A)*%
X121787500Y-110956521D03*
%TD*%
D14*
%TO.P,R15,1*%
%TO.N,/CC2*%
X77175000Y-105018178D03*
%TO.P,R15,2*%
%TO.N,Net-(D15-A)*%
X78825000Y-105018178D03*
%TD*%
D13*
%TO.P,D7,1,K*%
%TO.N,GND*%
X120212500Y-80521739D03*
%TO.P,D7,2,A*%
%TO.N,Net-(D7-A)*%
X121787500Y-80521739D03*
%TD*%
D14*
%TO.P,R21,1*%
%TO.N,/SHLD*%
X65212500Y-120000000D03*
%TO.P,R21,2*%
%TO.N,Net-(D21-A)*%
X66862500Y-120000000D03*
%TD*%
D13*
%TO.P,D3,1,K*%
%TO.N,GND*%
X77212500Y-119652173D03*
%TO.P,D3,2,A*%
%TO.N,Net-(D3-A)*%
X78787500Y-119652173D03*
%TD*%
%TO.P,D24,1,K*%
%TO.N,GND*%
X77212500Y-124000000D03*
%TO.P,D24,2,A*%
%TO.N,Net-(D24-A)*%
X78787500Y-124000000D03*
%TD*%
%TO.P,D13,1,K*%
%TO.N,GND*%
X77212500Y-97913043D03*
%TO.P,D13,2,A*%
%TO.N,Net-(D13-A)*%
X78787500Y-97913043D03*
%TD*%
D14*
%TO.P,R6,1*%
%TO.N,/RX2-*%
X120135000Y-113709086D03*
%TO.P,R6,2*%
%TO.N,Net-(D6-A)*%
X121785000Y-113709086D03*
%TD*%
%TO.P,R11,1*%
%TO.N,/D+_B*%
X77175000Y-100672724D03*
%TO.P,R11,2*%
%TO.N,Net-(D11-A)*%
X78825000Y-100672724D03*
%TD*%
D13*
%TO.P,D18,1,K*%
%TO.N,GND*%
X77212500Y-93565217D03*
%TO.P,D18,2,A*%
%TO.N,Net-(D18-A)*%
X78787500Y-93565217D03*
%TD*%
D29*
%TO.N,GND*%
X104350000Y-115800000D03*
X100000000Y-123300000D03*
X95400000Y-115850000D03*
D30*
X120200000Y-107700000D03*
X76100000Y-124000000D03*
X94500000Y-90100000D03*
X77200000Y-116400000D03*
X77300000Y-77300000D03*
X77200000Y-112000000D03*
X120200000Y-86000000D03*
X120200000Y-103400000D03*
X120200000Y-116400000D03*
X120200000Y-81700000D03*
X100000000Y-113400000D03*
X120200000Y-99100000D03*
X75100000Y-121200000D03*
X77200000Y-103300000D03*
X77200000Y-98900000D03*
X120200000Y-112000000D03*
X77200000Y-107600000D03*
X120200000Y-90300000D03*
X120200000Y-77400000D03*
X120200000Y-94700000D03*
X120200000Y-120700000D03*
X77200000Y-90300000D03*
X64100000Y-121700000D03*
X77200000Y-94700000D03*
X76100000Y-80500000D03*
X120200000Y-125100000D03*
X76300000Y-84900000D03*
%TO.N,/GND_A1*%
X119000000Y-74600000D03*
X68900000Y-104200000D03*
%TO.N,/TX1+*%
X118800000Y-78900000D03*
X69500000Y-104600000D03*
X71400000Y-88000000D03*
%TO.N,/TX1-*%
X71500000Y-89400000D03*
X70100000Y-104200000D03*
X118800000Y-83300000D03*
%TO.N,/VBUS_A4*%
X71900000Y-90200000D03*
X118800000Y-87600000D03*
X70700000Y-104600000D03*
%TO.N,/CC1*%
X71300000Y-104200000D03*
X118800000Y-92000000D03*
%TO.N,/D+_A*%
X71900000Y-104600000D03*
X118800000Y-96300000D03*
X72800000Y-94400000D03*
%TO.N,/D-_A*%
X74200000Y-91000000D03*
X119000000Y-100700000D03*
X71900000Y-113400000D03*
X77200000Y-91000000D03*
X80600000Y-118900000D03*
%TO.N,/VBUS_B9*%
X74900000Y-105000000D03*
%TO.N,/VBUS_A9*%
X70700000Y-113400000D03*
X119300000Y-109500000D03*
%TO.N,/RX2-*%
X73600000Y-96300000D03*
X81500000Y-97600000D03*
X70100000Y-113800000D03*
X84900000Y-121000000D03*
X118600000Y-113800000D03*
%TO.N,/RX2+*%
X73800000Y-95400000D03*
X83600000Y-121300000D03*
X81300000Y-95400000D03*
X119000000Y-118200000D03*
X69500000Y-113400000D03*
%TO.N,/GND_A12*%
X82400000Y-122300000D03*
X68900000Y-113800000D03*
X74200000Y-92000000D03*
X119000000Y-122400000D03*
X81100000Y-92700000D03*
%TO.N,/GND_B1*%
X72400000Y-112300000D03*
%TO.N,/TX2+*%
X72400000Y-111600000D03*
%TO.N,/TX2-*%
X72400000Y-110900000D03*
%TO.N,/VBUS_B4*%
X74300000Y-110400000D03*
%TO.N,/CC2*%
X74800000Y-109100000D03*
%TO.N,/D-_B*%
X73900000Y-108300000D03*
%TO.N,/RX1-*%
X74700000Y-104200000D03*
%TO.N,/RX1+*%
X74400000Y-103500000D03*
%TO.N,/GND_B12*%
X73700000Y-103400000D03*
%TO.N,/SBU1*%
X71300000Y-113800000D03*
X119000000Y-105000000D03*
%TO.N,/D+_B*%
X74600000Y-108400000D03*
%TO.N,/SBU2*%
X73800000Y-107400000D03*
%TD*%
D31*
%TO.N,GND*%
X104260000Y-115890000D02*
X104350000Y-115800000D01*
X100000000Y-115890000D02*
X104260000Y-115890000D01*
X100000000Y-115890000D02*
X100000000Y-123300000D01*
X95440000Y-115890000D02*
X95400000Y-115850000D01*
X100000000Y-115890000D02*
X95440000Y-115890000D01*
D32*
%TO.N,Net-(D1-A)*%
X78787500Y-110956521D02*
X78787500Y-109401132D01*
X78787500Y-109401132D02*
X78825000Y-109363632D01*
%TO.N,Net-(D2-A)*%
X78787500Y-89217391D02*
X78787500Y-87673862D01*
X78787500Y-87673862D02*
X78825000Y-87636362D01*
D33*
%TO.N,GND*%
X100000000Y-116000000D02*
X100000000Y-113400000D01*
D32*
X77212500Y-97913043D02*
X77212500Y-98887500D01*
X120212500Y-84869565D02*
X120212500Y-85987500D01*
X120212500Y-102260869D02*
X120212500Y-103387500D01*
X120212500Y-120687500D02*
X120200000Y-120700000D01*
X120212500Y-107687500D02*
X120200000Y-107700000D01*
X77212500Y-103287500D02*
X77200000Y-103300000D01*
X120212500Y-115304347D02*
X120212500Y-116387500D01*
X120212500Y-81687500D02*
X120200000Y-81700000D01*
X77212500Y-84869565D02*
X76330435Y-84869565D01*
X120212500Y-97913043D02*
X120212500Y-99087500D01*
D33*
X94500000Y-88950000D02*
X94500000Y-90100000D01*
D32*
X77212500Y-89217391D02*
X77212500Y-90287500D01*
X77212500Y-110956521D02*
X77212500Y-111987500D01*
X77212500Y-77212500D02*
X77300000Y-77300000D01*
X65250000Y-121750000D02*
X64150000Y-121750000D01*
X77212500Y-106608695D02*
X77212500Y-107587500D01*
X77212500Y-115304347D02*
X77212500Y-116387500D01*
X77212500Y-94687500D02*
X77200000Y-94700000D01*
X120212500Y-111987500D02*
X120200000Y-112000000D01*
X76121739Y-80521739D02*
X76100000Y-80500000D01*
X120212500Y-103387500D02*
X120200000Y-103400000D01*
X120212500Y-90287500D02*
X120200000Y-90300000D01*
X120212500Y-80521739D02*
X120212500Y-81687500D01*
X76330435Y-84869565D02*
X76300000Y-84900000D01*
X120212500Y-106608695D02*
X120212500Y-107687500D01*
X120212500Y-124000000D02*
X120212500Y-125087500D01*
X76647827Y-119652173D02*
X75100000Y-121200000D01*
X120212500Y-85987500D02*
X120200000Y-86000000D01*
X77212500Y-119652173D02*
X76647827Y-119652173D01*
X77212500Y-90287500D02*
X77200000Y-90300000D01*
X77212500Y-107587500D02*
X77200000Y-107600000D01*
X77212500Y-98887500D02*
X77200000Y-98900000D01*
X120212500Y-93565217D02*
X120212500Y-94687500D01*
X120212500Y-94687500D02*
X120200000Y-94700000D01*
X77212500Y-102260869D02*
X77212500Y-103287500D01*
X120212500Y-77387500D02*
X120200000Y-77400000D01*
X120212500Y-110956521D02*
X120212500Y-111987500D01*
X120212500Y-99087500D02*
X120200000Y-99100000D01*
X120212500Y-76173913D02*
X120212500Y-77387500D01*
X120212500Y-89217391D02*
X120212500Y-90287500D01*
X77212500Y-80521739D02*
X76121739Y-80521739D01*
X120212500Y-116387500D02*
X120200000Y-116400000D01*
X64150000Y-121750000D02*
X64100000Y-121700000D01*
X120212500Y-119652173D02*
X120212500Y-120687500D01*
X77212500Y-116387500D02*
X77200000Y-116400000D01*
X77212500Y-93565217D02*
X77212500Y-94687500D01*
X77212500Y-111987500D02*
X77200000Y-112000000D01*
X77212500Y-76173913D02*
X77212500Y-77212500D01*
X120212500Y-125087500D02*
X120200000Y-125100000D01*
X77212500Y-124000000D02*
X76100000Y-124000000D01*
%TO.N,Net-(D3-A)*%
X78787500Y-119652173D02*
X78787500Y-118092040D01*
X78787500Y-118092040D02*
X78825000Y-118054540D01*
%TO.N,Net-(D4-A)*%
X78787500Y-115304347D02*
X78787500Y-113746586D01*
X78787500Y-113746586D02*
X78825000Y-113709086D01*
%TO.N,Net-(D5-A)*%
X121787500Y-119652173D02*
X121787500Y-118057040D01*
X121787500Y-118057040D02*
X121785000Y-118054540D01*
%TO.N,Net-(D6-A)*%
X121787500Y-115304347D02*
X121787500Y-113711586D01*
X121787500Y-113711586D02*
X121785000Y-113709086D01*
%TO.N,Net-(D7-A)*%
X121787500Y-80521739D02*
X121787500Y-78947954D01*
X121787500Y-78947954D02*
X121785000Y-78945454D01*
%TO.N,Net-(D8-A)*%
X121787500Y-84869565D02*
X121787500Y-83293408D01*
X121787500Y-83293408D02*
X121785000Y-83290908D01*
%TO.N,Net-(D9-A)*%
X78787500Y-78982954D02*
X78825000Y-78945454D01*
X78787500Y-80521739D02*
X78787500Y-78982954D01*
D33*
%TO.N,+3V3*%
X94500000Y-87050000D02*
X99950000Y-87050000D01*
X130820000Y-77480000D02*
X135210000Y-77480000D01*
X129900000Y-78000000D02*
X130100000Y-78200000D01*
X130100000Y-78200000D02*
X130820000Y-77480000D01*
X109000000Y-78000000D02*
X129900000Y-78000000D01*
X100000000Y-87000000D02*
X109000000Y-78000000D01*
X99950000Y-87050000D02*
X100000000Y-87000000D01*
D32*
%TO.N,Net-(D10-A)*%
X78787500Y-84869565D02*
X78787500Y-83328408D01*
X78787500Y-83328408D02*
X78825000Y-83290908D01*
%TO.N,Net-(D11-A)*%
X78787500Y-100710224D02*
X78825000Y-100672724D01*
X78787500Y-102260869D02*
X78787500Y-100710224D01*
%TO.N,Net-(D12-A)*%
X121787500Y-96329770D02*
X121785000Y-96327270D01*
X121787500Y-97913043D02*
X121787500Y-96329770D01*
%TO.N,Net-(D13-A)*%
X78787500Y-96364770D02*
X78825000Y-96327270D01*
X78787500Y-97913043D02*
X78787500Y-96364770D01*
%TO.N,Net-(D14-A)*%
X121787500Y-100675224D02*
X121785000Y-100672724D01*
X121787500Y-102260869D02*
X121787500Y-100675224D01*
%TO.N,Net-(D15-A)*%
X78787500Y-105055678D02*
X78825000Y-105018178D01*
X78787500Y-106608695D02*
X78787500Y-105055678D01*
%TO.N,Net-(D16-A)*%
X121787500Y-93565217D02*
X121787500Y-91984316D01*
X121787500Y-91984316D02*
X121785000Y-91981816D01*
%TO.N,Net-(D17-A)*%
X121787500Y-105020678D02*
X121785000Y-105018178D01*
X121787500Y-106608695D02*
X121787500Y-105020678D01*
%TO.N,Net-(D18-A)*%
X78787500Y-93565217D02*
X78787500Y-92019316D01*
X78787500Y-92019316D02*
X78825000Y-91981816D01*
%TO.N,Net-(D19-A)*%
X121787500Y-110956521D02*
X121787500Y-109366132D01*
X121787500Y-109366132D02*
X121785000Y-109363632D01*
%TO.N,Net-(D20-A)*%
X121787500Y-89217391D02*
X121787500Y-87638862D01*
X121787500Y-87638862D02*
X121785000Y-87636362D01*
%TO.N,Net-(D21-A)*%
X66862500Y-120000000D02*
X66862500Y-121712500D01*
X66862500Y-121712500D02*
X66825000Y-121750000D01*
%TO.N,Net-(D22-A)*%
X121787500Y-74637500D02*
X121825000Y-74600000D01*
X121787500Y-76173913D02*
X121787500Y-74637500D01*
%TO.N,Net-(D23-A)*%
X121787500Y-122437500D02*
X121825000Y-122400000D01*
X121787500Y-124000000D02*
X121787500Y-122437500D01*
%TO.N,Net-(D24-A)*%
X78787500Y-124000000D02*
X78787500Y-122437500D01*
X78787500Y-122437500D02*
X78825000Y-122400000D01*
%TO.N,Net-(D25-A)*%
X78787500Y-76173913D02*
X78787500Y-74637500D01*
X78787500Y-74637500D02*
X78825000Y-74600000D01*
%TO.N,/GND_A1*%
X68900000Y-104200000D02*
X68900000Y-105200000D01*
X68900000Y-105200000D02*
X67850000Y-106250000D01*
X119000000Y-74600000D02*
X120175000Y-74600000D01*
X67850000Y-106250000D02*
X65210000Y-106250000D01*
%TO.N,/TX1+*%
X118800000Y-78900000D02*
X118845454Y-78945454D01*
X69500000Y-104600000D02*
X69500000Y-105500000D01*
X67525000Y-88000000D02*
X71400000Y-88000000D01*
X69500000Y-105500000D02*
X68250000Y-106750000D01*
X68250000Y-106750000D02*
X65210000Y-106750000D01*
X118845454Y-78945454D02*
X120135000Y-78945454D01*
%TO.N,/TX1-*%
X118800000Y-83300000D02*
X120125908Y-83300000D01*
X70100000Y-104200000D02*
X70100000Y-105900000D01*
X70100000Y-105900000D02*
X68750000Y-107250000D01*
X68750000Y-107250000D02*
X65210000Y-107250000D01*
X70900000Y-90000000D02*
X67525000Y-90000000D01*
X71500000Y-89400000D02*
X70900000Y-90000000D01*
X120125908Y-83300000D02*
X120135000Y-83290908D01*
%TO.N,/VBUS_A4*%
X118800000Y-87600000D02*
X120098638Y-87600000D01*
X66025000Y-88500000D02*
X66450000Y-88925000D01*
X72100000Y-90000000D02*
X71900000Y-90200000D01*
X72100000Y-89100000D02*
X72100000Y-90000000D01*
X70700000Y-104600000D02*
X70700000Y-106300000D01*
X69250000Y-107750000D02*
X65210000Y-107750000D01*
X66450000Y-88925000D02*
X71925000Y-88925000D01*
X120098638Y-87600000D02*
X120135000Y-87636362D01*
X71925000Y-88925000D02*
X72100000Y-89100000D01*
X70700000Y-106300000D02*
X69250000Y-107750000D01*
%TO.N,/CC1*%
X69750000Y-108250000D02*
X65210000Y-108250000D01*
X120116816Y-92000000D02*
X120135000Y-91981816D01*
X118800000Y-92000000D02*
X120116816Y-92000000D01*
X71300000Y-104200000D02*
X71300000Y-106700000D01*
X71300000Y-106700000D02*
X69750000Y-108250000D01*
%TO.N,/D+_A*%
X66025000Y-93000000D02*
X72100000Y-93000000D01*
X72100000Y-93000000D02*
X72800000Y-93700000D01*
X71900000Y-104600000D02*
X71900000Y-107000000D01*
X71900000Y-107000000D02*
X70150000Y-108750000D01*
X118800000Y-96300000D02*
X120107730Y-96300000D01*
X120107730Y-96300000D02*
X120135000Y-96327270D01*
X72800000Y-93700000D02*
X72800000Y-94400000D01*
X70150000Y-108750000D02*
X65210000Y-108750000D01*
%TO.N,/D-_A*%
X71900000Y-113400000D02*
X71900000Y-111000000D01*
X77200000Y-91000000D02*
X79400000Y-91000000D01*
X80200000Y-91800000D02*
X80200000Y-112300000D01*
X80200000Y-112300000D02*
X80200000Y-118500000D01*
X70150000Y-109250000D02*
X65210000Y-109250000D01*
X80200000Y-118500000D02*
X80600000Y-118900000D01*
X119000000Y-100700000D02*
X120107724Y-100700000D01*
X71900000Y-111000000D02*
X70150000Y-109250000D01*
X79400000Y-91000000D02*
X80200000Y-91800000D01*
X66025000Y-91000000D02*
X74200000Y-91000000D01*
X120107724Y-100700000D02*
X120135000Y-100672724D01*
%TO.N,/VBUS_B9*%
X76149501Y-88661861D02*
X77175000Y-87636362D01*
X74900000Y-104700000D02*
X75300000Y-104300000D01*
X76149501Y-96144768D02*
X76149501Y-88661861D01*
X74900000Y-105000000D02*
X74900000Y-104700000D01*
X75300000Y-104300000D02*
X75300000Y-96994270D01*
X75300000Y-96994270D02*
X76149501Y-96144768D01*
%TO.N,/VBUS_A9*%
X119300000Y-109500000D02*
X119436368Y-109363632D01*
X69250000Y-110250000D02*
X65210000Y-110250000D01*
X70700000Y-111700000D02*
X69250000Y-110250000D01*
X119436368Y-109363632D02*
X120135000Y-109363632D01*
X70700000Y-113400000D02*
X70700000Y-111700000D01*
%TO.N,/RX2-*%
X73500000Y-96300000D02*
X73600000Y-96300000D01*
X67525000Y-96000000D02*
X73200000Y-96000000D01*
X81400000Y-97700000D02*
X81500000Y-97600000D01*
X73400000Y-96200000D02*
X73500000Y-96300000D01*
X68750000Y-110750000D02*
X65210000Y-110750000D01*
X81400000Y-117500000D02*
X81400000Y-106800000D01*
X70100000Y-113800000D02*
X70100000Y-112100000D01*
X84900000Y-121000000D02*
X81400000Y-117500000D01*
X70100000Y-112100000D02*
X68750000Y-110750000D01*
X81400000Y-106800000D02*
X81400000Y-97700000D01*
X73200000Y-96000000D02*
X73400000Y-96200000D01*
X118600000Y-113800000D02*
X118690914Y-113709086D01*
X118690914Y-113709086D02*
X120135000Y-113709086D01*
%TO.N,/RX2+*%
X69500000Y-113400000D02*
X69500000Y-112500000D01*
X81000000Y-117800000D02*
X83600000Y-120400000D01*
X81000000Y-95700000D02*
X81000000Y-117800000D01*
X67525000Y-94000000D02*
X70800000Y-94000000D01*
X83600000Y-120400000D02*
X83600000Y-121300000D01*
X73700000Y-95400000D02*
X73800000Y-95400000D01*
X68250000Y-111250000D02*
X65210000Y-111250000D01*
X81300000Y-95400000D02*
X81000000Y-95700000D01*
X119145460Y-118054540D02*
X120135000Y-118054540D01*
X119000000Y-118200000D02*
X119145460Y-118054540D01*
X70800000Y-94000000D02*
X71700000Y-94900000D01*
X69500000Y-112500000D02*
X68250000Y-111250000D01*
X71700000Y-94900000D02*
X72200000Y-95400000D01*
X72200000Y-95400000D02*
X73700000Y-95400000D01*
%TO.N,/GND_A12*%
X81100000Y-92700000D02*
X80650499Y-93149501D01*
X67850000Y-111750000D02*
X65210000Y-111750000D01*
X82400000Y-119694270D02*
X82400000Y-122300000D01*
X67525000Y-92000000D02*
X74200000Y-92000000D01*
X119000000Y-122400000D02*
X120175000Y-122400000D01*
X68900000Y-113800000D02*
X68900000Y-112800000D01*
X80650499Y-93149501D02*
X80650499Y-117944769D01*
X68900000Y-112800000D02*
X67850000Y-111750000D01*
X80650499Y-117944769D02*
X82400000Y-119694270D01*
%TO.N,/GND_B1*%
X72900000Y-121300000D02*
X74000000Y-122400000D01*
X74000000Y-122400000D02*
X77175000Y-122400000D01*
X72900000Y-112800000D02*
X72900000Y-121300000D01*
X72400000Y-112300000D02*
X72900000Y-112800000D01*
%TO.N,/TX2+*%
X74454540Y-118054540D02*
X77175000Y-118054540D01*
X73400000Y-117000000D02*
X74454540Y-118054540D01*
X72400000Y-111600000D02*
X73400000Y-112600000D01*
X73400000Y-112600000D02*
X73400000Y-117000000D01*
%TO.N,/TX2-*%
X72400000Y-110900000D02*
X75209086Y-113709086D01*
X75209086Y-113709086D02*
X77175000Y-113709086D01*
%TO.N,/VBUS_B4*%
X74300000Y-110400000D02*
X75336368Y-109363632D01*
X75336368Y-109363632D02*
X77175000Y-109363632D01*
%TO.N,/CC2*%
X75100000Y-107582809D02*
X76500000Y-106182806D01*
X76500000Y-105693178D02*
X77175000Y-105018178D01*
X74800000Y-109100000D02*
X75100000Y-108800000D01*
X75100000Y-108800000D02*
X75100000Y-107582809D01*
X76500000Y-106182806D02*
X76500000Y-105693178D01*
%TO.N,/D-_B*%
X73900000Y-108300000D02*
X74300000Y-107900000D01*
X75800998Y-105893271D02*
X75800998Y-104787540D01*
X74300000Y-107900000D02*
X74300000Y-107394270D01*
X75999002Y-97503268D02*
X77175000Y-96327270D01*
X75999002Y-104589535D02*
X75999002Y-97503268D01*
X74300000Y-107394270D02*
X75800998Y-105893271D01*
X75800998Y-104787540D02*
X75999002Y-104589535D01*
%TO.N,/RX1-*%
X74900000Y-96900000D02*
X75800000Y-96000000D01*
X75800000Y-83800000D02*
X76309092Y-83290908D01*
X74900000Y-104000000D02*
X74900000Y-96900000D01*
X74700000Y-104200000D02*
X74900000Y-104000000D01*
X75800000Y-96000000D02*
X75800000Y-83800000D01*
X76309092Y-83290908D02*
X77175000Y-83290908D01*
%TO.N,/RX1+*%
X75450499Y-79649501D02*
X76154546Y-78945454D01*
X74400000Y-103500000D02*
X74500000Y-103400000D01*
X74500000Y-103400000D02*
X74500000Y-96600000D01*
X75450499Y-95649501D02*
X75450499Y-79649501D01*
X74500000Y-96600000D02*
X75450499Y-95649501D01*
X76154546Y-78945454D02*
X77175000Y-78945454D01*
%TO.N,/GND_B12*%
X75100998Y-95499002D02*
X75100998Y-75599002D01*
X75100998Y-75599002D02*
X76100000Y-74600000D01*
X74100000Y-103000000D02*
X74100000Y-96500000D01*
X73700000Y-103400000D02*
X74100000Y-103000000D01*
X76100000Y-74600000D02*
X77175000Y-74600000D01*
X74100000Y-96500000D02*
X75100998Y-95499002D01*
%TO.N,/SHLD*%
X63400000Y-113130000D02*
X63520001Y-113250001D01*
X62990000Y-104450000D02*
X63400000Y-104860000D01*
X60885000Y-113500000D02*
X60865000Y-113480000D01*
X60885000Y-119385000D02*
X61500000Y-120000000D01*
X59925000Y-98400000D02*
X59925000Y-85600000D01*
X61500000Y-120000000D02*
X65212500Y-120000000D01*
X63400000Y-104870000D02*
X62820000Y-104870000D01*
X60935000Y-103685000D02*
X59925000Y-102675000D01*
X63200000Y-113130000D02*
X63480000Y-113130000D01*
X66525000Y-85600000D02*
X59925000Y-85600000D01*
X59925000Y-102675000D02*
X59925000Y-98400000D01*
X61255000Y-113130000D02*
X63400000Y-113130000D01*
X60935000Y-104450000D02*
X61265000Y-104450000D01*
X63520001Y-104749999D02*
X63400000Y-104870000D01*
X61255000Y-104460000D02*
X61265000Y-104450000D01*
X61255000Y-113130000D02*
X61255000Y-104460000D01*
X66675000Y-98400000D02*
X59925000Y-98400000D01*
X60935000Y-104450000D02*
X60935000Y-103685000D01*
X60885000Y-113500000D02*
X61255000Y-113130000D01*
X60935000Y-104450000D02*
X60885000Y-104500000D01*
X60885000Y-104500000D02*
X59000000Y-104500000D01*
X60885000Y-113500000D02*
X60885000Y-119385000D01*
X60865000Y-113480000D02*
X59000000Y-113480000D01*
X61265000Y-104450000D02*
X62990000Y-104450000D01*
%TO.N,/SBU1*%
X120116822Y-105000000D02*
X120135000Y-105018178D01*
X69750000Y-109750000D02*
X65210000Y-109750000D01*
X119000000Y-105000000D02*
X120116822Y-105000000D01*
X71300000Y-111300000D02*
X69750000Y-109750000D01*
X71300000Y-113800000D02*
X71300000Y-111300000D01*
%TO.N,/D+_B*%
X74700000Y-107488540D02*
X76150499Y-106038039D01*
X74600000Y-108400000D02*
X74700000Y-108300000D01*
X74700000Y-108300000D02*
X74700000Y-107488540D01*
X76348503Y-104734302D02*
X76348503Y-101499221D01*
X76150499Y-106038039D02*
X76150499Y-104932307D01*
X76150499Y-104932307D02*
X76348503Y-104734302D01*
X76348503Y-101499221D02*
X77175000Y-100672724D01*
%TO.N,/SBU2*%
X76499002Y-96289536D02*
X76499002Y-92657814D01*
X75649501Y-104444768D02*
X75649501Y-97139039D01*
X76499002Y-92657814D02*
X77175000Y-91981816D01*
X75451497Y-104642773D02*
X75649501Y-104444768D01*
X75649501Y-97139039D02*
X76499002Y-96289536D01*
X73800000Y-107400000D02*
X75451497Y-105748503D01*
X75451497Y-105748503D02*
X75451497Y-104642773D01*
%TD*%
%TA.AperFunction,Conductor*%
%TO.N,+3V3*%
G36*
X136027467Y-107437862D02*
G01*
X136052878Y-107492356D01*
X136039640Y-107541757D01*
X136039640Y-107549999D01*
X136060000Y-107570359D01*
X136060000Y-107589782D01*
X136090448Y-107663291D01*
X136146709Y-107719552D01*
X136220218Y-107750000D01*
X136239606Y-107750000D01*
X136039606Y-107950000D01*
X136239606Y-108150000D01*
X136220218Y-108150000D01*
X136146709Y-108180448D01*
X136090448Y-108236709D01*
X136060000Y-108310218D01*
X136060000Y-108329606D01*
X135792531Y-108062137D01*
X135767120Y-108007643D01*
X135780359Y-107958237D01*
X135780359Y-107949999D01*
X135760000Y-107929639D01*
X135760000Y-107910218D01*
X135729552Y-107836709D01*
X135673291Y-107780448D01*
X135599782Y-107750000D01*
X135580394Y-107750000D01*
X135780394Y-107550000D01*
X135580394Y-107350000D01*
X135599782Y-107350000D01*
X135673291Y-107319552D01*
X135729552Y-107263291D01*
X135760000Y-107189782D01*
X135760000Y-107170394D01*
X136027467Y-107437862D01*
G37*
%TD.AperFunction*%
%TA.AperFunction,Conductor*%
G36*
X135360000Y-106389782D02*
G01*
X135390448Y-106463291D01*
X135446709Y-106519552D01*
X135520218Y-106550000D01*
X135539606Y-106550000D01*
X135339606Y-106750000D01*
X135539606Y-106950000D01*
X135520218Y-106950000D01*
X135446709Y-106980448D01*
X135390448Y-107036709D01*
X135360000Y-107110218D01*
X135360000Y-107129605D01*
X135069071Y-106838676D01*
X135054244Y-106858001D01*
X135023108Y-106933171D01*
X134982486Y-106977501D01*
X134922873Y-106985349D01*
X134872163Y-106953043D01*
X134853999Y-106899533D01*
X134853999Y-106824980D01*
X134842496Y-106767147D01*
X134842496Y-106732851D01*
X134853999Y-106675019D01*
X134853999Y-106600467D01*
X134874563Y-106543966D01*
X134926634Y-106513902D01*
X134985848Y-106524342D01*
X135023108Y-106566827D01*
X135054247Y-106642002D01*
X135069071Y-106661321D01*
X135360000Y-106370392D01*
X135360000Y-106389782D01*
G37*
%TD.AperFunction*%
%TA.AperFunction,Conductor*%
G36*
X136060000Y-105189782D02*
G01*
X136090448Y-105263291D01*
X136146709Y-105319552D01*
X136220218Y-105350000D01*
X136239606Y-105350000D01*
X136039606Y-105550000D01*
X136239606Y-105750000D01*
X136220218Y-105750000D01*
X136146709Y-105780448D01*
X136090448Y-105836709D01*
X136060000Y-105910218D01*
X136060000Y-105929638D01*
X136039639Y-105949999D01*
X136039640Y-105963932D01*
X136052878Y-105992321D01*
X136037315Y-106050399D01*
X136027467Y-106062136D01*
X135760000Y-106329603D01*
X135760000Y-106310218D01*
X135729552Y-106236709D01*
X135673291Y-106180448D01*
X135599782Y-106150000D01*
X135580394Y-106150000D01*
X135780394Y-105950000D01*
X135580394Y-105750000D01*
X135599782Y-105750000D01*
X135673291Y-105719552D01*
X135729552Y-105663291D01*
X135760000Y-105589782D01*
X135760000Y-105570357D01*
X135780359Y-105549999D01*
X135780359Y-105536070D01*
X135767120Y-105507679D01*
X135782683Y-105449601D01*
X135792531Y-105437863D01*
X136060000Y-105170393D01*
X136060000Y-105189782D01*
G37*
%TD.AperFunction*%
%TA.AperFunction,Conductor*%
G36*
X139620642Y-73010009D02*
G01*
X139794134Y-73012440D01*
X139802727Y-73012983D01*
X140148189Y-73051907D01*
X140157892Y-73053556D01*
X140496221Y-73130777D01*
X140505688Y-73133505D01*
X140690232Y-73198079D01*
X140833234Y-73248118D01*
X140842327Y-73251884D01*
X141130205Y-73390519D01*
X141154990Y-73402455D01*
X141163616Y-73407223D01*
X141457444Y-73591846D01*
X141465478Y-73597546D01*
X141736790Y-73813910D01*
X141744140Y-73820478D01*
X141989521Y-74065859D01*
X141996089Y-74073209D01*
X142212449Y-74344515D01*
X142218153Y-74352555D01*
X142402776Y-74646383D01*
X142407544Y-74655009D01*
X142558111Y-74967662D01*
X142561883Y-74976770D01*
X142676494Y-75304311D01*
X142679223Y-75313782D01*
X142756441Y-75652097D01*
X142758092Y-75661815D01*
X142797015Y-76007264D01*
X142797559Y-76015874D01*
X142799991Y-76189357D01*
X142800000Y-76190589D01*
X142800000Y-123809410D01*
X142799991Y-123810642D01*
X142797559Y-123984125D01*
X142797015Y-123992735D01*
X142758092Y-124338184D01*
X142756441Y-124347902D01*
X142679223Y-124686217D01*
X142676494Y-124695688D01*
X142561883Y-125023229D01*
X142558111Y-125032337D01*
X142407544Y-125344990D01*
X142402776Y-125353616D01*
X142218153Y-125647444D01*
X142212449Y-125655484D01*
X141996089Y-125926790D01*
X141989521Y-125934140D01*
X141744140Y-126179521D01*
X141736790Y-126186089D01*
X141465484Y-126402449D01*
X141457444Y-126408153D01*
X141163616Y-126592776D01*
X141154990Y-126597544D01*
X140842337Y-126748111D01*
X140833229Y-126751883D01*
X140505688Y-126866494D01*
X140496217Y-126869223D01*
X140157902Y-126946441D01*
X140148184Y-126948092D01*
X139802735Y-126987015D01*
X139794125Y-126987559D01*
X139620642Y-126989991D01*
X139619410Y-126990000D01*
X127037990Y-126990000D01*
X126981489Y-126969435D01*
X126951425Y-126917364D01*
X126950091Y-126902032D01*
X126953632Y-123077001D01*
X134096001Y-123077001D01*
X134096001Y-123975018D01*
X134110737Y-124049106D01*
X134166875Y-124133122D01*
X134166877Y-124133124D01*
X134250894Y-124189262D01*
X134324981Y-124203999D01*
X135322998Y-124203999D01*
X135323000Y-124203998D01*
X135323000Y-123077001D01*
X135577000Y-123077001D01*
X135577000Y-124203998D01*
X135577001Y-124203999D01*
X136575018Y-124203999D01*
X136649106Y-124189262D01*
X136733122Y-124133124D01*
X136733124Y-124133122D01*
X136789262Y-124049105D01*
X136804000Y-123975015D01*
X136804000Y-123077001D01*
X139596001Y-123077001D01*
X139596001Y-123975018D01*
X139610737Y-124049106D01*
X139666875Y-124133122D01*
X139666877Y-124133124D01*
X139750894Y-124189262D01*
X139824981Y-124203999D01*
X140822998Y-124203999D01*
X140823000Y-124203998D01*
X140823000Y-123077001D01*
X141077000Y-123077001D01*
X141077000Y-124203998D01*
X141077001Y-124203999D01*
X142075018Y-124203999D01*
X142149106Y-124189262D01*
X142233122Y-124133124D01*
X142233124Y-124133122D01*
X142289262Y-124049105D01*
X142304000Y-123975015D01*
X142304000Y-123077001D01*
X142303999Y-123077000D01*
X141077001Y-123077000D01*
X141077000Y-123077001D01*
X140823000Y-123077001D01*
X140822999Y-123077000D01*
X139596002Y-123077000D01*
X139596001Y-123077001D01*
X136804000Y-123077001D01*
X136803999Y-123077000D01*
X135577001Y-123077000D01*
X135577000Y-123077001D01*
X135323000Y-123077001D01*
X135322999Y-123077000D01*
X134096002Y-123077000D01*
X134096001Y-123077001D01*
X126953632Y-123077001D01*
X126954699Y-121924984D01*
X134096000Y-121924984D01*
X134096000Y-122822999D01*
X134096001Y-122823000D01*
X135322999Y-122823000D01*
X135323000Y-122822999D01*
X135323000Y-121696001D01*
X135577000Y-121696001D01*
X135577000Y-122822999D01*
X135577001Y-122823000D01*
X136803998Y-122823000D01*
X136803999Y-122822999D01*
X136803999Y-121924984D01*
X139596000Y-121924984D01*
X139596000Y-122822999D01*
X139596001Y-122823000D01*
X140822999Y-122823000D01*
X140823000Y-122822999D01*
X140823000Y-121696001D01*
X141077000Y-121696001D01*
X141077000Y-122822999D01*
X141077001Y-122823000D01*
X142303998Y-122823000D01*
X142303999Y-122822999D01*
X142303999Y-121924981D01*
X142289262Y-121850893D01*
X142233124Y-121766877D01*
X142233122Y-121766875D01*
X142149105Y-121710737D01*
X142075015Y-121696000D01*
X141077001Y-121696000D01*
X141077000Y-121696001D01*
X140823000Y-121696001D01*
X140822999Y-121696000D01*
X139824981Y-121696000D01*
X139750893Y-121710737D01*
X139666877Y-121766875D01*
X139666875Y-121766877D01*
X139610737Y-121850894D01*
X139596000Y-121924984D01*
X136803999Y-121924984D01*
X136803999Y-121924981D01*
X136789262Y-121850893D01*
X136733124Y-121766877D01*
X136733122Y-121766875D01*
X136649105Y-121710737D01*
X136575015Y-121696000D01*
X135577001Y-121696000D01*
X135577000Y-121696001D01*
X135323000Y-121696001D01*
X135322999Y-121696000D01*
X134324981Y-121696000D01*
X134250893Y-121710737D01*
X134166877Y-121766875D01*
X134166875Y-121766877D01*
X134110737Y-121850894D01*
X134096000Y-121924984D01*
X126954699Y-121924984D01*
X126955906Y-120620943D01*
X137499500Y-120620943D01*
X137499500Y-120779056D01*
X137540421Y-120931780D01*
X137540422Y-120931783D01*
X137540423Y-120931784D01*
X137619480Y-121068716D01*
X137731284Y-121180520D01*
X137868216Y-121259577D01*
X137868218Y-121259577D01*
X137868219Y-121259578D01*
X138020943Y-121300500D01*
X138179056Y-121300500D01*
X138179057Y-121300500D01*
X138331784Y-121259577D01*
X138468716Y-121180520D01*
X138580520Y-121068716D01*
X138659577Y-120931784D01*
X138700500Y-120779057D01*
X138700500Y-120620943D01*
X138676969Y-120533124D01*
X138659578Y-120468219D01*
X138659577Y-120468218D01*
X138659577Y-120468216D01*
X138580520Y-120331284D01*
X138468716Y-120219480D01*
X138331784Y-120140423D01*
X138331783Y-120140422D01*
X138331780Y-120140421D01*
X138179057Y-120099500D01*
X138020943Y-120099500D01*
X137868219Y-120140421D01*
X137731282Y-120219481D01*
X137619481Y-120331282D01*
X137540421Y-120468219D01*
X137499500Y-120620943D01*
X126955906Y-120620943D01*
X126956271Y-120227001D01*
X133696001Y-120227001D01*
X133696001Y-120375018D01*
X133710737Y-120449106D01*
X133766875Y-120533122D01*
X133766877Y-120533124D01*
X133850894Y-120589262D01*
X133924981Y-120603999D01*
X134922998Y-120603999D01*
X134923000Y-120603998D01*
X134923000Y-120227001D01*
X135177000Y-120227001D01*
X135177000Y-120603998D01*
X135177001Y-120603999D01*
X136175018Y-120603999D01*
X136249106Y-120589262D01*
X136333122Y-120533124D01*
X136333124Y-120533122D01*
X136389262Y-120449105D01*
X136404000Y-120375015D01*
X136404000Y-120227001D01*
X136403999Y-120227000D01*
X135177001Y-120227000D01*
X135177000Y-120227001D01*
X134923000Y-120227001D01*
X134922999Y-120227000D01*
X133696002Y-120227000D01*
X133696001Y-120227001D01*
X126956271Y-120227001D01*
X126956643Y-119824984D01*
X133696000Y-119824984D01*
X133696000Y-119972999D01*
X133696001Y-119973000D01*
X134922999Y-119973000D01*
X134923000Y-119972999D01*
X134923000Y-119427001D01*
X135177000Y-119427001D01*
X135177000Y-119972999D01*
X135177001Y-119973000D01*
X136403998Y-119973000D01*
X136403999Y-119972999D01*
X136403999Y-119824981D01*
X136389262Y-119750893D01*
X136387889Y-119748838D01*
X136387133Y-119745752D01*
X136385949Y-119742892D01*
X136386389Y-119742709D01*
X136373595Y-119690435D01*
X136387889Y-119651162D01*
X136389263Y-119649105D01*
X136404000Y-119575015D01*
X136404000Y-119427001D01*
X136403999Y-119427000D01*
X135177001Y-119427000D01*
X135177000Y-119427001D01*
X134923000Y-119427001D01*
X134922999Y-119427000D01*
X133696002Y-119427000D01*
X133696001Y-119427001D01*
X133696001Y-119575018D01*
X133710737Y-119649106D01*
X133712113Y-119651165D01*
X133712868Y-119654251D01*
X133714051Y-119657107D01*
X133713611Y-119657288D01*
X133726405Y-119709569D01*
X133712113Y-119748835D01*
X133710737Y-119750894D01*
X133696000Y-119824984D01*
X126956643Y-119824984D01*
X126957384Y-119024984D01*
X133696000Y-119024984D01*
X133696000Y-119172999D01*
X133696001Y-119173000D01*
X134922999Y-119173000D01*
X134923000Y-119172999D01*
X134923000Y-118627001D01*
X135177000Y-118627001D01*
X135177000Y-119172999D01*
X135177001Y-119173000D01*
X136403998Y-119173000D01*
X136403999Y-119172999D01*
X136403999Y-119024981D01*
X136389262Y-118950893D01*
X136387889Y-118948838D01*
X136387133Y-118945752D01*
X136385949Y-118942892D01*
X136386389Y-118942709D01*
X136373595Y-118890435D01*
X136387889Y-118851162D01*
X136389263Y-118849105D01*
X136404000Y-118775015D01*
X136404000Y-118627001D01*
X136403999Y-118627000D01*
X135177001Y-118627000D01*
X135177000Y-118627001D01*
X134923000Y-118627001D01*
X134922999Y-118627000D01*
X133696002Y-118627000D01*
X133696001Y-118627001D01*
X133696001Y-118775018D01*
X133710737Y-118849106D01*
X133712113Y-118851165D01*
X133712868Y-118854251D01*
X133714051Y-118857107D01*
X133713611Y-118857288D01*
X133726405Y-118909569D01*
X133712113Y-118948835D01*
X133710737Y-118950894D01*
X133696000Y-119024984D01*
X126957384Y-119024984D01*
X126958125Y-118224984D01*
X133696000Y-118224984D01*
X133696000Y-118372999D01*
X133696001Y-118373000D01*
X136403998Y-118373000D01*
X136403999Y-118372999D01*
X136403999Y-118224981D01*
X136389262Y-118150893D01*
X136334411Y-118068803D01*
X136320119Y-118010399D01*
X136321286Y-118002822D01*
X136328300Y-117967561D01*
X136328299Y-117432440D01*
X136328299Y-117432438D01*
X136328299Y-117432437D01*
X136321286Y-117397180D01*
X136330433Y-117337753D01*
X136334411Y-117331197D01*
X136389262Y-117249105D01*
X136404000Y-117175015D01*
X136404000Y-117027001D01*
X136403999Y-117027000D01*
X133696002Y-117027000D01*
X133696001Y-117027001D01*
X133696001Y-117175018D01*
X133710737Y-117249106D01*
X133765588Y-117331196D01*
X133779880Y-117389600D01*
X133778713Y-117397177D01*
X133771700Y-117432438D01*
X133771700Y-117967559D01*
X133778714Y-118002822D01*
X133769565Y-118062249D01*
X133765588Y-118068802D01*
X133710737Y-118150892D01*
X133696000Y-118224984D01*
X126958125Y-118224984D01*
X126959606Y-116624984D01*
X133696000Y-116624984D01*
X133696000Y-116772999D01*
X133696001Y-116773000D01*
X134922999Y-116773000D01*
X134923000Y-116772999D01*
X134923000Y-116396001D01*
X135177000Y-116396001D01*
X135177000Y-116772999D01*
X135177001Y-116773000D01*
X136403998Y-116773000D01*
X136403999Y-116772999D01*
X136403999Y-116624981D01*
X136389262Y-116550893D01*
X136333124Y-116466877D01*
X136333122Y-116466875D01*
X136249105Y-116410737D01*
X136175015Y-116396000D01*
X135177001Y-116396000D01*
X135177000Y-116396001D01*
X134923000Y-116396001D01*
X134922999Y-116396000D01*
X133924981Y-116396000D01*
X133850893Y-116410737D01*
X133766877Y-116466875D01*
X133766875Y-116466877D01*
X133710737Y-116550894D01*
X133696000Y-116624984D01*
X126959606Y-116624984D01*
X126959980Y-116220943D01*
X137499500Y-116220943D01*
X137499500Y-116379056D01*
X137540421Y-116531780D01*
X137540422Y-116531783D01*
X137540423Y-116531784D01*
X137619480Y-116668716D01*
X137731284Y-116780520D01*
X137868216Y-116859577D01*
X137868218Y-116859577D01*
X137868219Y-116859578D01*
X138020943Y-116900500D01*
X138179056Y-116900500D01*
X138179057Y-116900500D01*
X138331784Y-116859577D01*
X138468716Y-116780520D01*
X138580520Y-116668716D01*
X138659577Y-116531784D01*
X138700500Y-116379057D01*
X138700500Y-116220943D01*
X138659577Y-116068216D01*
X138580520Y-115931284D01*
X138468716Y-115819480D01*
X138331784Y-115740423D01*
X138331783Y-115740422D01*
X138331780Y-115740421D01*
X138179057Y-115699500D01*
X138020943Y-115699500D01*
X137868219Y-115740421D01*
X137731282Y-115819481D01*
X137619481Y-115931282D01*
X137540421Y-116068219D01*
X137499500Y-116220943D01*
X126959980Y-116220943D01*
X126961872Y-114177001D01*
X134096001Y-114177001D01*
X134096001Y-115075018D01*
X134110737Y-115149106D01*
X134166875Y-115233122D01*
X134166877Y-115233124D01*
X134250894Y-115289262D01*
X134324981Y-115303999D01*
X135322998Y-115303999D01*
X135323000Y-115303998D01*
X135323000Y-114177001D01*
X135577000Y-114177001D01*
X135577000Y-115303998D01*
X135577001Y-115303999D01*
X136575018Y-115303999D01*
X136649106Y-115289262D01*
X136733122Y-115233124D01*
X136733124Y-115233122D01*
X136789262Y-115149105D01*
X136804000Y-115075015D01*
X136804000Y-114177001D01*
X139596001Y-114177001D01*
X139596001Y-115075018D01*
X139610737Y-115149106D01*
X139666875Y-115233122D01*
X139666877Y-115233124D01*
X139750894Y-115289262D01*
X139824981Y-115303999D01*
X140822998Y-115303999D01*
X140823000Y-115303998D01*
X140823000Y-114177001D01*
X141077000Y-114177001D01*
X141077000Y-115303998D01*
X141077001Y-115303999D01*
X142075018Y-115303999D01*
X142149106Y-115289262D01*
X142233122Y-115233124D01*
X142233124Y-115233122D01*
X142289262Y-115149105D01*
X142304000Y-115075015D01*
X142304000Y-114177001D01*
X142303999Y-114177000D01*
X141077001Y-114177000D01*
X141077000Y-114177001D01*
X140823000Y-114177001D01*
X140822999Y-114177000D01*
X139596002Y-114177000D01*
X139596001Y-114177001D01*
X136804000Y-114177001D01*
X136803999Y-114177000D01*
X135577001Y-114177000D01*
X135577000Y-114177001D01*
X135323000Y-114177001D01*
X135322999Y-114177000D01*
X134096002Y-114177000D01*
X134096001Y-114177001D01*
X126961872Y-114177001D01*
X126962939Y-113024984D01*
X134096000Y-113024984D01*
X134096000Y-113922999D01*
X134096001Y-113923000D01*
X135322999Y-113923000D01*
X135323000Y-113922999D01*
X135323000Y-112796001D01*
X135577000Y-112796001D01*
X135577000Y-113922999D01*
X135577001Y-113923000D01*
X136803998Y-113923000D01*
X136803999Y-113922999D01*
X136803999Y-113024984D01*
X139596000Y-113024984D01*
X139596000Y-113922999D01*
X139596001Y-113923000D01*
X140822999Y-113923000D01*
X140823000Y-113922999D01*
X140823000Y-112796001D01*
X141077000Y-112796001D01*
X141077000Y-113922999D01*
X141077001Y-113923000D01*
X142303998Y-113923000D01*
X142303999Y-113922999D01*
X142303999Y-113024981D01*
X142289262Y-112950893D01*
X142233124Y-112866877D01*
X142233122Y-112866875D01*
X142149105Y-112810737D01*
X142075015Y-112796000D01*
X141077001Y-112796000D01*
X141077000Y-112796001D01*
X140823000Y-112796001D01*
X140822999Y-112796000D01*
X139824981Y-112796000D01*
X139750893Y-112810737D01*
X139666877Y-112866875D01*
X139666875Y-112866877D01*
X139610737Y-112950894D01*
X139596000Y-113024984D01*
X136803999Y-113024984D01*
X136803999Y-113024981D01*
X136789262Y-112950893D01*
X136733124Y-112866877D01*
X136733122Y-112866875D01*
X136649105Y-112810737D01*
X136575015Y-112796000D01*
X135577001Y-112796000D01*
X135577000Y-112796001D01*
X135323000Y-112796001D01*
X135322999Y-112796000D01*
X134324981Y-112796000D01*
X134250893Y-112810737D01*
X134166877Y-112866875D01*
X134166875Y-112866877D01*
X134110737Y-112950894D01*
X134096000Y-113024984D01*
X126962939Y-113024984D01*
X126966085Y-109627001D01*
X133646001Y-109627001D01*
X133646001Y-109675018D01*
X133660737Y-109749106D01*
X133716875Y-109833122D01*
X133716877Y-109833124D01*
X133800894Y-109889262D01*
X133874980Y-109903999D01*
X134123000Y-109903999D01*
X134123000Y-109627001D01*
X134122999Y-109627000D01*
X133646002Y-109627000D01*
X133646001Y-109627001D01*
X126966085Y-109627001D01*
X126966365Y-109324984D01*
X133646000Y-109324984D01*
X133646000Y-109372999D01*
X133646001Y-109373000D01*
X134122999Y-109373000D01*
X134123000Y-109372999D01*
X134123000Y-109127001D01*
X134122999Y-109127000D01*
X133646002Y-109127000D01*
X133646001Y-109127001D01*
X133646001Y-109175019D01*
X133657504Y-109232853D01*
X133657504Y-109267148D01*
X133646000Y-109324984D01*
X126966365Y-109324984D01*
X126966828Y-108824984D01*
X133646000Y-108824984D01*
X133646000Y-108872999D01*
X133646001Y-108873000D01*
X134122999Y-108873000D01*
X134123000Y-108872999D01*
X134123000Y-108627001D01*
X134377000Y-108627001D01*
X134377000Y-108872999D01*
X134377001Y-108873000D01*
X134853998Y-108873000D01*
X134853999Y-108872999D01*
X134853999Y-108824982D01*
X134842495Y-108767149D01*
X134842495Y-108732851D01*
X134854000Y-108675013D01*
X134854000Y-108627001D01*
X134853999Y-108627000D01*
X134377001Y-108627000D01*
X134377000Y-108627001D01*
X134123000Y-108627001D01*
X134122999Y-108627000D01*
X133646002Y-108627000D01*
X133646001Y-108627001D01*
X133646001Y-108675019D01*
X133657504Y-108732853D01*
X133657504Y-108767148D01*
X133646000Y-108824984D01*
X126966828Y-108824984D01*
X126967291Y-108324984D01*
X133646000Y-108324984D01*
X133646000Y-108372999D01*
X133646001Y-108373000D01*
X134122999Y-108373000D01*
X134123000Y-108372999D01*
X134123000Y-108127001D01*
X134122999Y-108127000D01*
X133646002Y-108127000D01*
X133646001Y-108127001D01*
X133646001Y-108175019D01*
X133657504Y-108232853D01*
X133657504Y-108267148D01*
X133646000Y-108324984D01*
X126967291Y-108324984D01*
X126967754Y-107824984D01*
X133646000Y-107824984D01*
X133646000Y-107872999D01*
X133646001Y-107873000D01*
X134122999Y-107873000D01*
X134123000Y-107872999D01*
X134123000Y-107627001D01*
X134122999Y-107627000D01*
X133646002Y-107627000D01*
X133646001Y-107627001D01*
X133646001Y-107675019D01*
X133657504Y-107732853D01*
X133657504Y-107767148D01*
X133646000Y-107824984D01*
X126967754Y-107824984D01*
X126968217Y-107324984D01*
X133646000Y-107324984D01*
X133646000Y-107372999D01*
X133646001Y-107373000D01*
X134122999Y-107373000D01*
X134123000Y-107372999D01*
X134123000Y-107127001D01*
X134122999Y-107127000D01*
X133646002Y-107127000D01*
X133646001Y-107127001D01*
X133646001Y-107175019D01*
X133657504Y-107232853D01*
X133657504Y-107267148D01*
X133646000Y-107324984D01*
X126968217Y-107324984D01*
X126968680Y-106824984D01*
X133646000Y-106824984D01*
X133646000Y-106872999D01*
X133646001Y-106873000D01*
X134122999Y-106873000D01*
X134123000Y-106872999D01*
X134123000Y-106627001D01*
X134122999Y-106627000D01*
X133646002Y-106627000D01*
X133646001Y-106627001D01*
X133646001Y-106675019D01*
X133657504Y-106732853D01*
X133657504Y-106767148D01*
X133646000Y-106824984D01*
X126968680Y-106824984D01*
X126969143Y-106324984D01*
X133646000Y-106324984D01*
X133646000Y-106372999D01*
X133646001Y-106373000D01*
X134122999Y-106373000D01*
X134123000Y-106372999D01*
X134123000Y-106127001D01*
X134122999Y-106127000D01*
X133646002Y-106127000D01*
X133646001Y-106127001D01*
X133646001Y-106175019D01*
X133657504Y-106232853D01*
X133657504Y-106267148D01*
X133646000Y-106324984D01*
X126969143Y-106324984D01*
X126969606Y-105824984D01*
X133646000Y-105824984D01*
X133646000Y-105872999D01*
X133646001Y-105873000D01*
X134122999Y-105873000D01*
X134123000Y-105872999D01*
X134123000Y-105627001D01*
X134122999Y-105627000D01*
X133646002Y-105627000D01*
X133646001Y-105627001D01*
X133646001Y-105675019D01*
X133657504Y-105732853D01*
X133657504Y-105767148D01*
X133646000Y-105824984D01*
X126969606Y-105824984D01*
X126970069Y-105324984D01*
X133646000Y-105324984D01*
X133646000Y-105372999D01*
X133646001Y-105373000D01*
X134122999Y-105373000D01*
X134123000Y-105372999D01*
X134123000Y-105127001D01*
X134122999Y-105127000D01*
X133646002Y-105127000D01*
X133646001Y-105127001D01*
X133646001Y-105175019D01*
X133657504Y-105232853D01*
X133657504Y-105267148D01*
X133646000Y-105324984D01*
X126970069Y-105324984D01*
X126970532Y-104824984D01*
X133646000Y-104824984D01*
X133646000Y-104872999D01*
X133646001Y-104873000D01*
X134122999Y-104873000D01*
X134123000Y-104872999D01*
X134123000Y-104627001D01*
X134377000Y-104627001D01*
X134377000Y-104872999D01*
X134377001Y-104873000D01*
X134853998Y-104873000D01*
X134853999Y-104872999D01*
X134853999Y-104824982D01*
X134842495Y-104767149D01*
X134842495Y-104732851D01*
X134854000Y-104675013D01*
X134854000Y-104627001D01*
X134853999Y-104627000D01*
X134377001Y-104627000D01*
X134377000Y-104627001D01*
X134123000Y-104627001D01*
X134122999Y-104627000D01*
X133646002Y-104627000D01*
X133646001Y-104627001D01*
X133646001Y-104675019D01*
X133657504Y-104732853D01*
X133657504Y-104767148D01*
X133646000Y-104824984D01*
X126970532Y-104824984D01*
X126970995Y-104324984D01*
X133646000Y-104324984D01*
X133646000Y-104372999D01*
X133646001Y-104373000D01*
X134122999Y-104373000D01*
X134123000Y-104372999D01*
X134123000Y-104127001D01*
X134122999Y-104127000D01*
X133646002Y-104127000D01*
X133646001Y-104127001D01*
X133646001Y-104175019D01*
X133657504Y-104232853D01*
X133657504Y-104267148D01*
X133646000Y-104324984D01*
X126970995Y-104324984D01*
X126971458Y-103824984D01*
X133646000Y-103824984D01*
X133646000Y-103872999D01*
X133646001Y-103873000D01*
X134122999Y-103873000D01*
X134123000Y-103872999D01*
X134123000Y-103596001D01*
X134377000Y-103596001D01*
X134377000Y-104372999D01*
X134377001Y-104373000D01*
X134853998Y-104373000D01*
X134853999Y-104372999D01*
X134853999Y-104324980D01*
X134842496Y-104267147D01*
X134842496Y-104232852D01*
X134853432Y-104177872D01*
X134884624Y-104126468D01*
X134941560Y-104107141D01*
X134997599Y-104128933D01*
X135020852Y-104161381D01*
X135054247Y-104242001D01*
X135069071Y-104261321D01*
X135360000Y-103970393D01*
X135360000Y-103989782D01*
X135390448Y-104063291D01*
X135446709Y-104119552D01*
X135520218Y-104150000D01*
X135539605Y-104150000D01*
X135248677Y-104440926D01*
X135268001Y-104455754D01*
X135408850Y-104514096D01*
X135559999Y-104533995D01*
X135634905Y-104524134D01*
X135693607Y-104537148D01*
X135727587Y-104577643D01*
X135754245Y-104641999D01*
X135769071Y-104661321D01*
X136060000Y-104370393D01*
X136060000Y-104389782D01*
X136090448Y-104463291D01*
X136146709Y-104519552D01*
X136220218Y-104550000D01*
X136239606Y-104550000D01*
X136039606Y-104750000D01*
X136239606Y-104950000D01*
X136220218Y-104950000D01*
X136146709Y-104980448D01*
X136090448Y-105036709D01*
X136060000Y-105110218D01*
X136060000Y-105129605D01*
X135769071Y-104838676D01*
X135754245Y-104858000D01*
X135727588Y-104922356D01*
X135686966Y-104966686D01*
X135634906Y-104975865D01*
X135560000Y-104966004D01*
X135408850Y-104985903D01*
X135268001Y-105044244D01*
X135248677Y-105059071D01*
X135248677Y-105059072D01*
X135539605Y-105350000D01*
X135520218Y-105350000D01*
X135446709Y-105380448D01*
X135390448Y-105436709D01*
X135360000Y-105510218D01*
X135360000Y-105529606D01*
X135069071Y-105238677D01*
X135054245Y-105258000D01*
X135020851Y-105338620D01*
X134980229Y-105382950D01*
X134920616Y-105390797D01*
X134869906Y-105358491D01*
X134853431Y-105322129D01*
X134842495Y-105267148D01*
X134842495Y-105232851D01*
X134854000Y-105175013D01*
X134854000Y-105127001D01*
X134853999Y-105127000D01*
X134377001Y-105127000D01*
X134377000Y-105127001D01*
X134377000Y-105872999D01*
X134377001Y-105873000D01*
X134853998Y-105873000D01*
X134853999Y-105872999D01*
X134853999Y-105824981D01*
X134849619Y-105802961D01*
X134858766Y-105743533D01*
X134903972Y-105703889D01*
X134964085Y-105702578D01*
X135010977Y-105740213D01*
X135017039Y-105752175D01*
X135054246Y-105842000D01*
X135069071Y-105861321D01*
X135360000Y-105570392D01*
X135360000Y-105589782D01*
X135390448Y-105663291D01*
X135446709Y-105719552D01*
X135520218Y-105750000D01*
X135539606Y-105750000D01*
X135339606Y-105950000D01*
X135539606Y-106150000D01*
X135520218Y-106150000D01*
X135446709Y-106180448D01*
X135390448Y-106236709D01*
X135360000Y-106310218D01*
X135360000Y-106329605D01*
X135069071Y-106038676D01*
X135054244Y-106058001D01*
X135023109Y-106133169D01*
X134982487Y-106177499D01*
X134922875Y-106185347D01*
X134872164Y-106153041D01*
X134868116Y-106141117D01*
X134853999Y-106127000D01*
X134377001Y-106127000D01*
X134377000Y-106127001D01*
X134377000Y-107372999D01*
X134377001Y-107373000D01*
X134853998Y-107373000D01*
X134869716Y-107357281D01*
X134874564Y-107343963D01*
X134926635Y-107313899D01*
X134985849Y-107324340D01*
X135023108Y-107366826D01*
X135054246Y-107442000D01*
X135069071Y-107461321D01*
X135360000Y-107170392D01*
X135360000Y-107189782D01*
X135390448Y-107263291D01*
X135446709Y-107319552D01*
X135520218Y-107350000D01*
X135539606Y-107350000D01*
X135339606Y-107550000D01*
X135539606Y-107750000D01*
X135520218Y-107750000D01*
X135446709Y-107780448D01*
X135390448Y-107836709D01*
X135360000Y-107910218D01*
X135360000Y-107929605D01*
X135069071Y-107638676D01*
X135054244Y-107658001D01*
X135017040Y-107747821D01*
X134976418Y-107792151D01*
X134916806Y-107799999D01*
X134866095Y-107767693D01*
X134848015Y-107710349D01*
X134849620Y-107697035D01*
X134854000Y-107675015D01*
X134854000Y-107627001D01*
X134853999Y-107627000D01*
X134377001Y-107627000D01*
X134377000Y-107627001D01*
X134377000Y-108372999D01*
X134377001Y-108373000D01*
X134853998Y-108373000D01*
X134853999Y-108372999D01*
X134853999Y-108324980D01*
X134842496Y-108267147D01*
X134842496Y-108232852D01*
X134853432Y-108177872D01*
X134884624Y-108126468D01*
X134941560Y-108107141D01*
X134997599Y-108128933D01*
X135020852Y-108161381D01*
X135054247Y-108242001D01*
X135069071Y-108261321D01*
X135360000Y-107970392D01*
X135360000Y-107989782D01*
X135390448Y-108063291D01*
X135446709Y-108119552D01*
X135520218Y-108150000D01*
X135539605Y-108150000D01*
X135248677Y-108440926D01*
X135268001Y-108455754D01*
X135408850Y-108514096D01*
X135559999Y-108533995D01*
X135634905Y-108524134D01*
X135693607Y-108537148D01*
X135727587Y-108577643D01*
X135754245Y-108641999D01*
X135769071Y-108661321D01*
X136060000Y-108370392D01*
X136060000Y-108389782D01*
X136090448Y-108463291D01*
X136146709Y-108519552D01*
X136220218Y-108550000D01*
X136239606Y-108550000D01*
X136039606Y-108750000D01*
X136239606Y-108950000D01*
X136220218Y-108950000D01*
X136146709Y-108980448D01*
X136090448Y-109036709D01*
X136060000Y-109110218D01*
X136060000Y-109129605D01*
X135769071Y-108838676D01*
X135754245Y-108858000D01*
X135727588Y-108922356D01*
X135686966Y-108966686D01*
X135634906Y-108975865D01*
X135560000Y-108966004D01*
X135408850Y-108985903D01*
X135268001Y-109044244D01*
X135248677Y-109059071D01*
X135248677Y-109059072D01*
X135539605Y-109350000D01*
X135520218Y-109350000D01*
X135446709Y-109380448D01*
X135390448Y-109436709D01*
X135360000Y-109510218D01*
X135360000Y-109529605D01*
X135069072Y-109238677D01*
X135069071Y-109238677D01*
X135054245Y-109258000D01*
X135020851Y-109338620D01*
X134980229Y-109382950D01*
X134920616Y-109390797D01*
X134869906Y-109358491D01*
X134853431Y-109322129D01*
X134842495Y-109267148D01*
X134842495Y-109232851D01*
X134854000Y-109175013D01*
X134854000Y-109127001D01*
X134853999Y-109127000D01*
X134377001Y-109127000D01*
X134377000Y-109127001D01*
X134377000Y-109903998D01*
X134377001Y-109903999D01*
X134471332Y-109903999D01*
X134527833Y-109924564D01*
X134557897Y-109976635D01*
X134547456Y-110035849D01*
X134533487Y-110054054D01*
X134529505Y-110058035D01*
X134466904Y-110166464D01*
X134434500Y-110287399D01*
X134434500Y-110412600D01*
X134466904Y-110533535D01*
X134497195Y-110586001D01*
X134529505Y-110641964D01*
X134618036Y-110730495D01*
X134726464Y-110793095D01*
X134847399Y-110825500D01*
X134847400Y-110825500D01*
X134972600Y-110825500D01*
X134972601Y-110825500D01*
X135093536Y-110793095D01*
X135142588Y-110764775D01*
X135186535Y-110753000D01*
X135642007Y-110753000D01*
X135610000Y-110830272D01*
X135610000Y-110929728D01*
X135642007Y-111007000D01*
X135218449Y-111007000D01*
X135231132Y-111070760D01*
X135231136Y-111070771D01*
X135280433Y-111189784D01*
X135352003Y-111296897D01*
X135443102Y-111387996D01*
X135550215Y-111459566D01*
X135669238Y-111508867D01*
X135669243Y-111508869D01*
X135795589Y-111534000D01*
X136032999Y-111534000D01*
X136033000Y-111533999D01*
X136033000Y-111130000D01*
X136287000Y-111130000D01*
X136287000Y-111533999D01*
X136287001Y-111534000D01*
X136524411Y-111534000D01*
X136650756Y-111508869D01*
X136650761Y-111508867D01*
X136769784Y-111459566D01*
X136876897Y-111387996D01*
X136967996Y-111296897D01*
X137039566Y-111189784D01*
X137071371Y-111113000D01*
X139618449Y-111113000D01*
X140042007Y-111113000D01*
X140010000Y-111190272D01*
X140010000Y-111289728D01*
X140042007Y-111367000D01*
X139618449Y-111367000D01*
X139631132Y-111430760D01*
X139631136Y-111430771D01*
X139680433Y-111549784D01*
X139752003Y-111656897D01*
X139843102Y-111747996D01*
X139950215Y-111819566D01*
X140069238Y-111868867D01*
X140069243Y-111868869D01*
X140195589Y-111894000D01*
X140432999Y-111894000D01*
X140433000Y-111893999D01*
X140433000Y-111490000D01*
X140687000Y-111490000D01*
X140687000Y-111893999D01*
X140687001Y-111894000D01*
X140924411Y-111894000D01*
X141050756Y-111868869D01*
X141050761Y-111868867D01*
X141169784Y-111819566D01*
X141276897Y-111747996D01*
X141367996Y-111656897D01*
X141439566Y-111549784D01*
X141488863Y-111430771D01*
X141488867Y-111430760D01*
X141501551Y-111367000D01*
X141077993Y-111367000D01*
X141110000Y-111289728D01*
X141110000Y-111190272D01*
X141077993Y-111113000D01*
X141501550Y-111113000D01*
X141488867Y-111049239D01*
X141488863Y-111049228D01*
X141439566Y-110930215D01*
X141367996Y-110823102D01*
X141276897Y-110732003D01*
X141169784Y-110660433D01*
X141050761Y-110611132D01*
X141050756Y-110611130D01*
X140924411Y-110586000D01*
X140687001Y-110586000D01*
X140687000Y-110586001D01*
X140687000Y-110990000D01*
X140433000Y-110990000D01*
X140433000Y-110586001D01*
X140432999Y-110586000D01*
X140195589Y-110586000D01*
X140069243Y-110611130D01*
X140069238Y-110611132D01*
X139950215Y-110660433D01*
X139843102Y-110732003D01*
X139752003Y-110823102D01*
X139680433Y-110930215D01*
X139631136Y-111049228D01*
X139631132Y-111049239D01*
X139618449Y-111113000D01*
X137071371Y-111113000D01*
X137088863Y-111070771D01*
X137088867Y-111070760D01*
X137101551Y-111007000D01*
X136677993Y-111007000D01*
X136710000Y-110929728D01*
X136710000Y-110830272D01*
X136677993Y-110753000D01*
X137101550Y-110753000D01*
X137088867Y-110689239D01*
X137088863Y-110689228D01*
X137039566Y-110570215D01*
X136967996Y-110463102D01*
X136876897Y-110372003D01*
X136769784Y-110300433D01*
X136650761Y-110251132D01*
X136650756Y-110251130D01*
X136524411Y-110226000D01*
X136287001Y-110226000D01*
X136287000Y-110226001D01*
X136287000Y-110630000D01*
X136033000Y-110630000D01*
X136033000Y-110226001D01*
X136032999Y-110226000D01*
X135882893Y-110226000D01*
X135826392Y-110205435D01*
X135796328Y-110153364D01*
X135806769Y-110094150D01*
X135847097Y-110058783D01*
X135847011Y-110058634D01*
X135847764Y-110058199D01*
X135849256Y-110056891D01*
X135851996Y-110055756D01*
X135852000Y-110055753D01*
X135871321Y-110040927D01*
X135871321Y-110040926D01*
X135580395Y-109750000D01*
X135599782Y-109750000D01*
X135673291Y-109719552D01*
X135729552Y-109663291D01*
X135760000Y-109589782D01*
X135760000Y-109570395D01*
X136050926Y-109861321D01*
X136050927Y-109861321D01*
X136065751Y-109842003D01*
X136065755Y-109841995D01*
X136092410Y-109777645D01*
X136133031Y-109733314D01*
X136185093Y-109724134D01*
X136260000Y-109733995D01*
X136411149Y-109714096D01*
X136551998Y-109655754D01*
X136552000Y-109655753D01*
X136571321Y-109640927D01*
X136571321Y-109640926D01*
X136280395Y-109350000D01*
X136299782Y-109350000D01*
X136373291Y-109319552D01*
X136429552Y-109263291D01*
X136460000Y-109189782D01*
X136460000Y-109170394D01*
X136750927Y-109461321D01*
X136765753Y-109442000D01*
X136765754Y-109441998D01*
X136824096Y-109301149D01*
X136843996Y-109150000D01*
X136843996Y-109149999D01*
X136824096Y-108998850D01*
X136765754Y-108858001D01*
X136750926Y-108838676D01*
X136750925Y-108838676D01*
X136460000Y-109129603D01*
X136460000Y-109110218D01*
X136429552Y-109036709D01*
X136373291Y-108980448D01*
X136299782Y-108950000D01*
X136280394Y-108950000D01*
X136480394Y-108750000D01*
X136280394Y-108550000D01*
X136299782Y-108550000D01*
X136373291Y-108519552D01*
X136429552Y-108463291D01*
X136460000Y-108389782D01*
X136460000Y-108370394D01*
X136750926Y-108661321D01*
X136750927Y-108661321D01*
X136765753Y-108642000D01*
X136765754Y-108641998D01*
X136824096Y-108501149D01*
X136843996Y-108350000D01*
X136843996Y-108349999D01*
X136824096Y-108198850D01*
X136765754Y-108058001D01*
X136750926Y-108038676D01*
X136750925Y-108038676D01*
X136460000Y-108329603D01*
X136460000Y-108310218D01*
X136429552Y-108236709D01*
X136373291Y-108180448D01*
X136299782Y-108150000D01*
X136280394Y-108150000D01*
X136480394Y-107950000D01*
X136280394Y-107750000D01*
X136299782Y-107750000D01*
X136373291Y-107719552D01*
X136429552Y-107663291D01*
X136460000Y-107589782D01*
X136460000Y-107570394D01*
X136750926Y-107861321D01*
X136750927Y-107861321D01*
X136765753Y-107842000D01*
X136765754Y-107841998D01*
X136824096Y-107701149D01*
X136843996Y-107550000D01*
X136843996Y-107549999D01*
X136824096Y-107398850D01*
X136765754Y-107258001D01*
X136750926Y-107238677D01*
X136460000Y-107529603D01*
X136460000Y-107510218D01*
X136429552Y-107436709D01*
X136373291Y-107380448D01*
X136299782Y-107350000D01*
X136280395Y-107350000D01*
X136571321Y-107059071D01*
X136552000Y-107044246D01*
X136411149Y-106985903D01*
X136260000Y-106966004D01*
X136259999Y-106966004D01*
X136185091Y-106975865D01*
X136126390Y-106962851D01*
X136092410Y-106922355D01*
X136065754Y-106858001D01*
X136050926Y-106838676D01*
X136050925Y-106838676D01*
X135760000Y-107129603D01*
X135760000Y-107110218D01*
X135729552Y-107036709D01*
X135673291Y-106980448D01*
X135599782Y-106950000D01*
X135580394Y-106950000D01*
X135780394Y-106750000D01*
X135580394Y-106550000D01*
X135599782Y-106550000D01*
X135673291Y-106519552D01*
X135729552Y-106463291D01*
X135760000Y-106389782D01*
X135760000Y-106370394D01*
X136050926Y-106661321D01*
X136050927Y-106661321D01*
X136065751Y-106642003D01*
X136065755Y-106641995D01*
X136092410Y-106577645D01*
X136133031Y-106533314D01*
X136185093Y-106524134D01*
X136260000Y-106533995D01*
X136411149Y-106514096D01*
X136551998Y-106455754D01*
X136552000Y-106455753D01*
X136571321Y-106440927D01*
X136571321Y-106440926D01*
X136280395Y-106150000D01*
X136299782Y-106150000D01*
X136373291Y-106119552D01*
X136429552Y-106063291D01*
X136460000Y-105989782D01*
X136460000Y-105970394D01*
X136750927Y-106261321D01*
X136765753Y-106242000D01*
X136765754Y-106241998D01*
X136824096Y-106101149D01*
X136843996Y-105950000D01*
X136843996Y-105949999D01*
X136824096Y-105798850D01*
X136765754Y-105658001D01*
X136750926Y-105638676D01*
X136750925Y-105638676D01*
X136460000Y-105929603D01*
X136460000Y-105910218D01*
X136429552Y-105836709D01*
X136373291Y-105780448D01*
X136299782Y-105750000D01*
X136280394Y-105750000D01*
X136480394Y-105550000D01*
X136280394Y-105350000D01*
X136299782Y-105350000D01*
X136373291Y-105319552D01*
X136429552Y-105263291D01*
X136460000Y-105189782D01*
X136460000Y-105170394D01*
X136750926Y-105461321D01*
X136750927Y-105461321D01*
X136765753Y-105442000D01*
X136765754Y-105441998D01*
X136824096Y-105301149D01*
X136843996Y-105150000D01*
X136843996Y-105149999D01*
X136824096Y-104998850D01*
X136765754Y-104858001D01*
X136750926Y-104838676D01*
X136750925Y-104838676D01*
X136460000Y-105129603D01*
X136460000Y-105110218D01*
X136429552Y-105036709D01*
X136373291Y-104980448D01*
X136299782Y-104950000D01*
X136280394Y-104950000D01*
X136480394Y-104750000D01*
X136280394Y-104550000D01*
X136299782Y-104550000D01*
X136373291Y-104519552D01*
X136429552Y-104463291D01*
X136460000Y-104389782D01*
X136460000Y-104370394D01*
X136750926Y-104661321D01*
X136750927Y-104661321D01*
X136765753Y-104642000D01*
X136765754Y-104641998D01*
X136824096Y-104501149D01*
X136843996Y-104350000D01*
X136843996Y-104349999D01*
X136824096Y-104198850D01*
X136765754Y-104058001D01*
X136750926Y-104038677D01*
X136460000Y-104329603D01*
X136460000Y-104310218D01*
X136429552Y-104236709D01*
X136373291Y-104180448D01*
X136299782Y-104150000D01*
X136280395Y-104150000D01*
X136571321Y-103859071D01*
X136552000Y-103844246D01*
X136411149Y-103785903D01*
X136260000Y-103766004D01*
X136259999Y-103766004D01*
X136185091Y-103775865D01*
X136126390Y-103762851D01*
X136092410Y-103722355D01*
X136065754Y-103658001D01*
X136050927Y-103638677D01*
X135760000Y-103929604D01*
X135760000Y-103910218D01*
X135729552Y-103836709D01*
X135673291Y-103780448D01*
X135599782Y-103750000D01*
X135580395Y-103750000D01*
X135871321Y-103459071D01*
X135851999Y-103444245D01*
X135849255Y-103443109D01*
X135847934Y-103441898D01*
X135847013Y-103441367D01*
X135847130Y-103441162D01*
X135804924Y-103402488D01*
X135797075Y-103342875D01*
X135829382Y-103292165D01*
X135882892Y-103274000D01*
X136032999Y-103274000D01*
X136033000Y-103273999D01*
X136033000Y-102870000D01*
X136287000Y-102870000D01*
X136287000Y-103273999D01*
X136287001Y-103274000D01*
X136524411Y-103274000D01*
X136650756Y-103248869D01*
X136650761Y-103248867D01*
X136769784Y-103199566D01*
X136876897Y-103127996D01*
X136967996Y-103036897D01*
X137039566Y-102929784D01*
X137088863Y-102810771D01*
X137088867Y-102810760D01*
X137101551Y-102747000D01*
X136677993Y-102747000D01*
X136710000Y-102669728D01*
X136710000Y-102570272D01*
X136677993Y-102493000D01*
X137101550Y-102493000D01*
X137088867Y-102429239D01*
X137088863Y-102429228D01*
X137039566Y-102310215D01*
X136967996Y-102203102D01*
X136897894Y-102133000D01*
X139618449Y-102133000D01*
X140042007Y-102133000D01*
X140010000Y-102210272D01*
X140010000Y-102309728D01*
X140042007Y-102387000D01*
X139618449Y-102387000D01*
X139631132Y-102450760D01*
X139631136Y-102450771D01*
X139680433Y-102569784D01*
X139752003Y-102676897D01*
X139843102Y-102767996D01*
X139950215Y-102839566D01*
X140069238Y-102888867D01*
X140069243Y-102888869D01*
X140195589Y-102914000D01*
X140432999Y-102914000D01*
X140433000Y-102913999D01*
X140433000Y-102510000D01*
X140687000Y-102510000D01*
X140687000Y-102913999D01*
X140687001Y-102914000D01*
X140924411Y-102914000D01*
X141050756Y-102888869D01*
X141050761Y-102888867D01*
X141169784Y-102839566D01*
X141276897Y-102767996D01*
X141367996Y-102676897D01*
X141439566Y-102569784D01*
X141488863Y-102450771D01*
X141488867Y-102450760D01*
X141501551Y-102387000D01*
X141077993Y-102387000D01*
X141110000Y-102309728D01*
X141110000Y-102210272D01*
X141077993Y-102133000D01*
X141501550Y-102133000D01*
X141488867Y-102069239D01*
X141488863Y-102069228D01*
X141439566Y-101950215D01*
X141367996Y-101843102D01*
X141276897Y-101752003D01*
X141169784Y-101680433D01*
X141050761Y-101631132D01*
X141050756Y-101631130D01*
X140924411Y-101606000D01*
X140687001Y-101606000D01*
X140687000Y-101606001D01*
X140687000Y-102010000D01*
X140433000Y-102010000D01*
X140433000Y-101606001D01*
X140432999Y-101606000D01*
X140195589Y-101606000D01*
X140069243Y-101631130D01*
X140069238Y-101631132D01*
X139950215Y-101680433D01*
X139843102Y-101752003D01*
X139752003Y-101843102D01*
X139680433Y-101950215D01*
X139631136Y-102069228D01*
X139631132Y-102069239D01*
X139618449Y-102133000D01*
X136897894Y-102133000D01*
X136876897Y-102112003D01*
X136769784Y-102040433D01*
X136650761Y-101991132D01*
X136650756Y-101991130D01*
X136524411Y-101966000D01*
X136287001Y-101966000D01*
X136287000Y-101966001D01*
X136287000Y-102370000D01*
X136033000Y-102370000D01*
X136033000Y-101966001D01*
X136032999Y-101966000D01*
X135795589Y-101966000D01*
X135669243Y-101991130D01*
X135669238Y-101991132D01*
X135550215Y-102040433D01*
X135443102Y-102112003D01*
X135352003Y-102203102D01*
X135280433Y-102310215D01*
X135231132Y-102429238D01*
X135231130Y-102429243D01*
X135218092Y-102494794D01*
X135186900Y-102546198D01*
X135129964Y-102565525D01*
X135098240Y-102558854D01*
X135093534Y-102556904D01*
X135016865Y-102536360D01*
X134972601Y-102524500D01*
X134847399Y-102524500D01*
X134821842Y-102531347D01*
X134726464Y-102556904D01*
X134618035Y-102619505D01*
X134529505Y-102708035D01*
X134466904Y-102816464D01*
X134440770Y-102913999D01*
X134434500Y-102937399D01*
X134434500Y-103362601D01*
X134456377Y-103444245D01*
X134467391Y-103485349D01*
X134462151Y-103545248D01*
X134419635Y-103587764D01*
X134382486Y-103596000D01*
X134377001Y-103596000D01*
X134377000Y-103596001D01*
X134123000Y-103596001D01*
X134122999Y-103596000D01*
X133874981Y-103596000D01*
X133800893Y-103610737D01*
X133716877Y-103666875D01*
X133716875Y-103666877D01*
X133660737Y-103750894D01*
X133646000Y-103824984D01*
X126971458Y-103824984D01*
X126974562Y-100473000D01*
X139905511Y-100473000D01*
X140482007Y-100473000D01*
X140450000Y-100550272D01*
X140450000Y-100649728D01*
X140482007Y-100727000D01*
X139905511Y-100727000D01*
X139926894Y-100834509D01*
X139926897Y-100834516D01*
X139987505Y-100980836D01*
X140075491Y-101112517D01*
X140187482Y-101224508D01*
X140319163Y-101312494D01*
X140465482Y-101373102D01*
X140465490Y-101373105D01*
X140620815Y-101404000D01*
X140972999Y-101404000D01*
X140973000Y-101403999D01*
X140973000Y-100850000D01*
X141227000Y-100850000D01*
X141227000Y-101403999D01*
X141227001Y-101404000D01*
X141579185Y-101404000D01*
X141734509Y-101373105D01*
X141734517Y-101373102D01*
X141880836Y-101312494D01*
X142012517Y-101224508D01*
X142124508Y-101112517D01*
X142212494Y-100980836D01*
X142273102Y-100834516D01*
X142273105Y-100834509D01*
X142294489Y-100727000D01*
X141717993Y-100727000D01*
X141750000Y-100649728D01*
X141750000Y-100550272D01*
X141717993Y-100473000D01*
X142294488Y-100473000D01*
X142273105Y-100365490D01*
X142273102Y-100365483D01*
X142212494Y-100219163D01*
X142124508Y-100087482D01*
X142012517Y-99975491D01*
X141880836Y-99887505D01*
X141734517Y-99826897D01*
X141734509Y-99826894D01*
X141579185Y-99796000D01*
X141227001Y-99796000D01*
X141227000Y-99796001D01*
X141227000Y-100350000D01*
X140973000Y-100350000D01*
X140973000Y-99796001D01*
X140972999Y-99796000D01*
X140620815Y-99796000D01*
X140465490Y-99826894D01*
X140465482Y-99826897D01*
X140319163Y-99887505D01*
X140187482Y-99975491D01*
X140075491Y-100087482D01*
X139987505Y-100219163D01*
X139926897Y-100365483D01*
X139926894Y-100365490D01*
X139905511Y-100473000D01*
X126974562Y-100473000D01*
X126975000Y-100000000D01*
X126976456Y-98427001D01*
X137521001Y-98427001D01*
X137521001Y-98525018D01*
X137535737Y-98599106D01*
X137591875Y-98683122D01*
X137591877Y-98683124D01*
X137675894Y-98739262D01*
X137749980Y-98753999D01*
X137847193Y-98753999D01*
X137903694Y-98774563D01*
X137909349Y-98779744D01*
X138307647Y-99178042D01*
X138235095Y-99219930D01*
X138169930Y-99285095D01*
X138128042Y-99357647D01*
X137742503Y-98972109D01*
X137734960Y-98980487D01*
X137734954Y-98980495D01*
X137642571Y-99140504D01*
X137585471Y-99316243D01*
X137566158Y-99499995D01*
X137566158Y-99500004D01*
X137585471Y-99683756D01*
X137642570Y-99859491D01*
X137734955Y-100019507D01*
X137742504Y-100027889D01*
X138128041Y-99642351D01*
X138169930Y-99714905D01*
X138235095Y-99780070D01*
X138307646Y-99821957D01*
X137924730Y-100204874D01*
X138008080Y-100265429D01*
X138176876Y-100340582D01*
X138176882Y-100340584D01*
X138357612Y-100379000D01*
X138542388Y-100379000D01*
X138723117Y-100340584D01*
X138723123Y-100340582D01*
X138891920Y-100265430D01*
X138975268Y-100204874D01*
X138592352Y-99821958D01*
X138664905Y-99780070D01*
X138730070Y-99714905D01*
X138771958Y-99642352D01*
X139157495Y-100027889D01*
X139165041Y-100019511D01*
X139165047Y-100019503D01*
X139257428Y-99859495D01*
X139314528Y-99683756D01*
X139333842Y-99500004D01*
X139333842Y-99499995D01*
X139314528Y-99316243D01*
X139257429Y-99140508D01*
X139165044Y-98980492D01*
X139157495Y-98972109D01*
X138771957Y-99357646D01*
X138730070Y-99285095D01*
X138664905Y-99219930D01*
X138592351Y-99178041D01*
X138990650Y-98779744D01*
X139045144Y-98754333D01*
X139052805Y-98753999D01*
X139150018Y-98753999D01*
X139224106Y-98739262D01*
X139308122Y-98683124D01*
X139308124Y-98683122D01*
X139364262Y-98599105D01*
X139379000Y-98525015D01*
X139379000Y-98427001D01*
X139378999Y-98427000D01*
X137521002Y-98427000D01*
X137521001Y-98427001D01*
X126976456Y-98427001D01*
X126976782Y-98074984D01*
X137521000Y-98074984D01*
X137521000Y-98172999D01*
X137521001Y-98173000D01*
X138322999Y-98173000D01*
X138323000Y-98172999D01*
X138323000Y-97777001D01*
X138577000Y-97777001D01*
X138577000Y-98172999D01*
X138577001Y-98173000D01*
X139378998Y-98173000D01*
X139378999Y-98172999D01*
X139378999Y-98074981D01*
X139362574Y-97992404D01*
X139366723Y-97991578D01*
X139365267Y-97958132D01*
X139362574Y-97957597D01*
X139379000Y-97875015D01*
X139379000Y-97777001D01*
X139378999Y-97777000D01*
X138577001Y-97777000D01*
X138577000Y-97777001D01*
X138323000Y-97777001D01*
X138322999Y-97777000D01*
X137521002Y-97777000D01*
X137521001Y-97777001D01*
X137521001Y-97875019D01*
X137537425Y-97957597D01*
X137533275Y-97958422D01*
X137534731Y-97991866D01*
X137537426Y-97992403D01*
X137521000Y-98074984D01*
X126976782Y-98074984D01*
X126977384Y-97424984D01*
X137521000Y-97424984D01*
X137521000Y-97522999D01*
X137521001Y-97523000D01*
X138322999Y-97523000D01*
X138323000Y-97522999D01*
X138323000Y-97127001D01*
X138577000Y-97127001D01*
X138577000Y-97522999D01*
X138577001Y-97523000D01*
X139378998Y-97523000D01*
X139378999Y-97522999D01*
X139378999Y-97424981D01*
X139362574Y-97342404D01*
X139366723Y-97341578D01*
X139365267Y-97308132D01*
X139362574Y-97307597D01*
X139379000Y-97225015D01*
X139379000Y-97127001D01*
X139378999Y-97127000D01*
X138577001Y-97127000D01*
X138577000Y-97127001D01*
X138323000Y-97127001D01*
X138322999Y-97127000D01*
X137521002Y-97127000D01*
X137521001Y-97127001D01*
X137521001Y-97225019D01*
X137537425Y-97307597D01*
X137533275Y-97308422D01*
X137534731Y-97341866D01*
X137537426Y-97342403D01*
X137521000Y-97424984D01*
X126977384Y-97424984D01*
X126977986Y-96774984D01*
X137521000Y-96774984D01*
X137521000Y-96872999D01*
X137521001Y-96873000D01*
X139378998Y-96873000D01*
X139378999Y-96872999D01*
X139378999Y-96774981D01*
X139364262Y-96700893D01*
X139317075Y-96630273D01*
X139302783Y-96571869D01*
X139303039Y-96570204D01*
X139303298Y-96567568D01*
X139303300Y-96567561D01*
X139303299Y-96132440D01*
X139303299Y-96132439D01*
X139303299Y-96132436D01*
X139302876Y-96128139D01*
X139305146Y-96127915D01*
X139313103Y-96076272D01*
X139317075Y-96069727D01*
X139364262Y-95999105D01*
X139379000Y-95925015D01*
X139379000Y-95827001D01*
X139378999Y-95827000D01*
X137521002Y-95827000D01*
X137521001Y-95827001D01*
X137521001Y-95925018D01*
X137535737Y-95999106D01*
X137582924Y-96069725D01*
X137597216Y-96128129D01*
X137596960Y-96129793D01*
X137596700Y-96132434D01*
X137596700Y-96567562D01*
X137597124Y-96571860D01*
X137594853Y-96572083D01*
X137586897Y-96623727D01*
X137582925Y-96630271D01*
X137535737Y-96700892D01*
X137521000Y-96774984D01*
X126977986Y-96774984D01*
X126979189Y-95474984D01*
X137521000Y-95474984D01*
X137521000Y-95572999D01*
X137521001Y-95573000D01*
X139378998Y-95573000D01*
X139378999Y-95572999D01*
X139378999Y-95474981D01*
X139364262Y-95400893D01*
X139308124Y-95316877D01*
X139308122Y-95316875D01*
X139224105Y-95260737D01*
X139150015Y-95246000D01*
X139052804Y-95246000D01*
X138996303Y-95225435D01*
X138990649Y-95220255D01*
X138592352Y-94821958D01*
X138664905Y-94780070D01*
X138730070Y-94714905D01*
X138771958Y-94642352D01*
X139157495Y-95027889D01*
X139165041Y-95019511D01*
X139165047Y-95019503D01*
X139257428Y-94859495D01*
X139314528Y-94683756D01*
X139333842Y-94500004D01*
X139333842Y-94499995D01*
X139314528Y-94316243D01*
X139257429Y-94140508D01*
X139165044Y-93980492D01*
X139157495Y-93972109D01*
X138771957Y-94357646D01*
X138730070Y-94285095D01*
X138664905Y-94219930D01*
X138592351Y-94178041D01*
X138975268Y-93795125D01*
X138975268Y-93795124D01*
X138891923Y-93734571D01*
X138723123Y-93659417D01*
X138723117Y-93659415D01*
X138542388Y-93621000D01*
X138357612Y-93621000D01*
X138176882Y-93659415D01*
X138176876Y-93659417D01*
X138008076Y-93734571D01*
X137924730Y-93795125D01*
X138307647Y-94178042D01*
X138235095Y-94219930D01*
X138169930Y-94285095D01*
X138128042Y-94357647D01*
X137742503Y-93972109D01*
X137734960Y-93980487D01*
X137734954Y-93980495D01*
X137642571Y-94140504D01*
X137585471Y-94316243D01*
X137566158Y-94499995D01*
X137566158Y-94500004D01*
X137585471Y-94683756D01*
X137642570Y-94859491D01*
X137734955Y-95019507D01*
X137742504Y-95027889D01*
X138128041Y-94642351D01*
X138169930Y-94714905D01*
X138235095Y-94780070D01*
X138307646Y-94821957D01*
X137909348Y-95220255D01*
X137854854Y-95245666D01*
X137847194Y-95246000D01*
X137749981Y-95246000D01*
X137675893Y-95260737D01*
X137591877Y-95316875D01*
X137591875Y-95316877D01*
X137535737Y-95400894D01*
X137521000Y-95474984D01*
X126979189Y-95474984D01*
X126979793Y-94822843D01*
X126981228Y-93273000D01*
X139905511Y-93273000D01*
X140482007Y-93273000D01*
X140450000Y-93350272D01*
X140450000Y-93449728D01*
X140482007Y-93527000D01*
X139905511Y-93527000D01*
X139926894Y-93634509D01*
X139926897Y-93634516D01*
X139987505Y-93780836D01*
X140075491Y-93912517D01*
X140187482Y-94024508D01*
X140319163Y-94112494D01*
X140465482Y-94173102D01*
X140465490Y-94173105D01*
X140620815Y-94204000D01*
X140972999Y-94204000D01*
X140973000Y-94203999D01*
X140973000Y-93650000D01*
X141227000Y-93650000D01*
X141227000Y-94203999D01*
X141227001Y-94204000D01*
X141579185Y-94204000D01*
X141734509Y-94173105D01*
X141734517Y-94173102D01*
X141880836Y-94112494D01*
X142012517Y-94024508D01*
X142124508Y-93912517D01*
X142212494Y-93780836D01*
X142273102Y-93634516D01*
X142273105Y-93634509D01*
X142294489Y-93527000D01*
X141717993Y-93527000D01*
X141750000Y-93449728D01*
X141750000Y-93350272D01*
X141717993Y-93273000D01*
X142294488Y-93273000D01*
X142273105Y-93165490D01*
X142273102Y-93165483D01*
X142212494Y-93019163D01*
X142124508Y-92887482D01*
X142012517Y-92775491D01*
X141880836Y-92687505D01*
X141734517Y-92626897D01*
X141734509Y-92626894D01*
X141579185Y-92596000D01*
X141227001Y-92596000D01*
X141227000Y-92596001D01*
X141227000Y-93150000D01*
X140973000Y-93150000D01*
X140973000Y-92596001D01*
X140972999Y-92596000D01*
X140620815Y-92596000D01*
X140465490Y-92626894D01*
X140465482Y-92626897D01*
X140319163Y-92687505D01*
X140187482Y-92775491D01*
X140075491Y-92887482D01*
X139987505Y-93019163D01*
X139926897Y-93165483D01*
X139926894Y-93165490D01*
X139905511Y-93273000D01*
X126981228Y-93273000D01*
X126984703Y-89520000D01*
X133186009Y-89520000D01*
X133205949Y-89798799D01*
X133265359Y-90071901D01*
X133265362Y-90071912D01*
X133363038Y-90333792D01*
X133496991Y-90579108D01*
X133496996Y-90579115D01*
X133664493Y-90802865D01*
X133673510Y-90811883D01*
X134210316Y-90275077D01*
X134229692Y-90301746D01*
X134363254Y-90435308D01*
X134389921Y-90454683D01*
X133853116Y-90991489D01*
X133862134Y-91000506D01*
X134085884Y-91168003D01*
X134085891Y-91168008D01*
X134331207Y-91301961D01*
X134593087Y-91399637D01*
X134593098Y-91399640D01*
X134866200Y-91459050D01*
X135145000Y-91478990D01*
X135423799Y-91459050D01*
X135696901Y-91399640D01*
X135696912Y-91399637D01*
X135958792Y-91301961D01*
X136204108Y-91168008D01*
X136204115Y-91168003D01*
X136427865Y-91000506D01*
X136436883Y-90991489D01*
X135900077Y-90454683D01*
X135926746Y-90435308D01*
X136060308Y-90301746D01*
X136079683Y-90275077D01*
X136616489Y-90811883D01*
X136625506Y-90802865D01*
X136793003Y-90579115D01*
X136793008Y-90579108D01*
X136926961Y-90333792D01*
X137024637Y-90071912D01*
X137024640Y-90071901D01*
X137084050Y-89798799D01*
X137103990Y-89520000D01*
X137084050Y-89241200D01*
X137024640Y-88968098D01*
X137024637Y-88968087D01*
X136926961Y-88706207D01*
X136793008Y-88460891D01*
X136793003Y-88460884D01*
X136625506Y-88237134D01*
X136616489Y-88228116D01*
X136079683Y-88764921D01*
X136060308Y-88738254D01*
X135926746Y-88604692D01*
X135900077Y-88585316D01*
X136436883Y-88048510D01*
X136427865Y-88039493D01*
X136204115Y-87871996D01*
X136204108Y-87871991D01*
X135958792Y-87738038D01*
X135696912Y-87640362D01*
X135696901Y-87640359D01*
X135423799Y-87580949D01*
X135145000Y-87561009D01*
X134866200Y-87580949D01*
X134593098Y-87640359D01*
X134593087Y-87640362D01*
X134331207Y-87738038D01*
X134085891Y-87871991D01*
X134085884Y-87871996D01*
X133862134Y-88039493D01*
X133853116Y-88048510D01*
X134389922Y-88585316D01*
X134363254Y-88604692D01*
X134229692Y-88738254D01*
X134210316Y-88764922D01*
X133673510Y-88228116D01*
X133664493Y-88237134D01*
X133496996Y-88460884D01*
X133496991Y-88460891D01*
X133363038Y-88706207D01*
X133265362Y-88968087D01*
X133265359Y-88968098D01*
X133205949Y-89241200D01*
X133186009Y-89520000D01*
X126984703Y-89520000D01*
X126987963Y-85999995D01*
X127586296Y-85999995D01*
X127586296Y-86000004D01*
X127605059Y-86178527D01*
X127605059Y-86178529D01*
X127660535Y-86349265D01*
X127750296Y-86504736D01*
X127755204Y-86510188D01*
X127755205Y-86510189D01*
X128123033Y-86142360D01*
X128164921Y-86214912D01*
X128230088Y-86280079D01*
X128302638Y-86321965D01*
X127937629Y-86686975D01*
X128015650Y-86743660D01*
X128130286Y-86794699D01*
X128173538Y-86836467D01*
X128179823Y-86896265D01*
X128146200Y-86946113D01*
X128130286Y-86955301D01*
X128015645Y-87006342D01*
X127937629Y-87063024D01*
X128302638Y-87428033D01*
X128230088Y-87469921D01*
X128164921Y-87535088D01*
X128123033Y-87607639D01*
X127755204Y-87239810D01*
X127755203Y-87239810D01*
X127750298Y-87245260D01*
X127750296Y-87245263D01*
X127660535Y-87400734D01*
X127605059Y-87571470D01*
X127605059Y-87571472D01*
X127586296Y-87749995D01*
X127586296Y-87750004D01*
X127605059Y-87928527D01*
X127605059Y-87928529D01*
X127660535Y-88099265D01*
X127750296Y-88254736D01*
X127755204Y-88260188D01*
X127755205Y-88260189D01*
X128123033Y-87892360D01*
X128164921Y-87964912D01*
X128230088Y-88030079D01*
X128302638Y-88071965D01*
X127937629Y-88436975D01*
X128015650Y-88493660D01*
X128179646Y-88566675D01*
X128179648Y-88566676D01*
X128355235Y-88603999D01*
X128355244Y-88604000D01*
X128534756Y-88604000D01*
X128534764Y-88603999D01*
X128710351Y-88566676D01*
X128710353Y-88566675D01*
X128874352Y-88493658D01*
X128952369Y-88436975D01*
X128587360Y-88071966D01*
X128659912Y-88030079D01*
X128725079Y-87964912D01*
X128766966Y-87892360D01*
X129134794Y-88260188D01*
X129139703Y-88254737D01*
X129229464Y-88099265D01*
X129284940Y-87928529D01*
X129284940Y-87928527D01*
X129303704Y-87750004D01*
X129303704Y-87749995D01*
X129284940Y-87571472D01*
X129284940Y-87571470D01*
X129229464Y-87400734D01*
X129139704Y-87245263D01*
X129134794Y-87239810D01*
X128766965Y-87607638D01*
X128725079Y-87535088D01*
X128659912Y-87469921D01*
X128587359Y-87428032D01*
X128952369Y-87063023D01*
X128874349Y-87006339D01*
X128759714Y-86955301D01*
X128716462Y-86913533D01*
X128710177Y-86853735D01*
X128743800Y-86803887D01*
X128759714Y-86794699D01*
X128874352Y-86743658D01*
X128952369Y-86686975D01*
X128587360Y-86321966D01*
X128659912Y-86280079D01*
X128725079Y-86214912D01*
X128766966Y-86142360D01*
X129134794Y-86510188D01*
X129139703Y-86504737D01*
X129229464Y-86349265D01*
X129284940Y-86178529D01*
X129284940Y-86178527D01*
X129303704Y-86000004D01*
X129303704Y-85999995D01*
X129284940Y-85821472D01*
X129284940Y-85821470D01*
X129229464Y-85650734D01*
X129139704Y-85495263D01*
X129134794Y-85489810D01*
X128766965Y-85857638D01*
X128725079Y-85785088D01*
X128659912Y-85719921D01*
X128587359Y-85678032D01*
X128952369Y-85313023D01*
X128874349Y-85256339D01*
X128710353Y-85183324D01*
X128710351Y-85183323D01*
X128534764Y-85146000D01*
X128355235Y-85146000D01*
X128179648Y-85183323D01*
X128179646Y-85183324D01*
X128015645Y-85256342D01*
X127937629Y-85313024D01*
X128302638Y-85678033D01*
X128230088Y-85719921D01*
X128164921Y-85785088D01*
X128123033Y-85857639D01*
X127755204Y-85489810D01*
X127755203Y-85489810D01*
X127750298Y-85495260D01*
X127750296Y-85495263D01*
X127660535Y-85650734D01*
X127605059Y-85821470D01*
X127605059Y-85821472D01*
X127586296Y-85999995D01*
X126987963Y-85999995D01*
X126989120Y-84750000D01*
X129426142Y-84750000D01*
X129445528Y-84946824D01*
X129502936Y-85136071D01*
X129596167Y-85310494D01*
X129640672Y-85364721D01*
X130039828Y-84965565D01*
X130074901Y-85026314D01*
X130158686Y-85110099D01*
X130219432Y-85145170D01*
X129820276Y-85544327D01*
X129874505Y-85588832D01*
X129874504Y-85588832D01*
X130048928Y-85682063D01*
X130238175Y-85739471D01*
X130435000Y-85758857D01*
X130631824Y-85739471D01*
X130821071Y-85682063D01*
X130995486Y-85588836D01*
X130995495Y-85588830D01*
X131049721Y-85544326D01*
X130650566Y-85145171D01*
X130711314Y-85110099D01*
X130795099Y-85026314D01*
X130830171Y-84965566D01*
X131229326Y-85364721D01*
X131273830Y-85310495D01*
X131273836Y-85310486D01*
X131362479Y-85144649D01*
X131407250Y-85104514D01*
X131467345Y-85102547D01*
X131514645Y-85139668D01*
X131517521Y-85144649D01*
X131606167Y-85310494D01*
X131650672Y-85364721D01*
X132049828Y-84965565D01*
X132084901Y-85026314D01*
X132168686Y-85110099D01*
X132229432Y-85145170D01*
X131830276Y-85544327D01*
X131884505Y-85588832D01*
X131884504Y-85588832D01*
X132058928Y-85682063D01*
X132248175Y-85739471D01*
X132445000Y-85758857D01*
X132641824Y-85739471D01*
X132831071Y-85682063D01*
X133005486Y-85588836D01*
X133005495Y-85588830D01*
X133059721Y-85544326D01*
X132660566Y-85145171D01*
X132721314Y-85110099D01*
X132805099Y-85026314D01*
X132840171Y-84965566D01*
X133239326Y-85364721D01*
X133283830Y-85310495D01*
X133283836Y-85310486D01*
X133377063Y-85136071D01*
X133434471Y-84946824D01*
X133453857Y-84750000D01*
X133434471Y-84553175D01*
X133377063Y-84363928D01*
X133283832Y-84189505D01*
X133239327Y-84135276D01*
X132840170Y-84534432D01*
X132805099Y-84473686D01*
X132721314Y-84389901D01*
X132660565Y-84354828D01*
X133059721Y-83955672D01*
X133005494Y-83911167D01*
X133005495Y-83911167D01*
X132831071Y-83817936D01*
X132641824Y-83760528D01*
X132445000Y-83741142D01*
X132248175Y-83760528D01*
X132058928Y-83817936D01*
X131884508Y-83911165D01*
X131830277Y-83955671D01*
X132229434Y-84354828D01*
X132168686Y-84389901D01*
X132084901Y-84473686D01*
X132049828Y-84534434D01*
X131650671Y-84135277D01*
X131606165Y-84189508D01*
X131517521Y-84355350D01*
X131472750Y-84395485D01*
X131412655Y-84397452D01*
X131365355Y-84360331D01*
X131362479Y-84355350D01*
X131273832Y-84189505D01*
X131229327Y-84135276D01*
X130830170Y-84534432D01*
X130795099Y-84473686D01*
X130711314Y-84389901D01*
X130650565Y-84354828D01*
X131049721Y-83955672D01*
X130995494Y-83911167D01*
X130995495Y-83911167D01*
X130821071Y-83817936D01*
X130631824Y-83760528D01*
X130435000Y-83741142D01*
X130238175Y-83760528D01*
X130048928Y-83817936D01*
X129874508Y-83911165D01*
X129820277Y-83955671D01*
X130219434Y-84354828D01*
X130158686Y-84389901D01*
X130074901Y-84473686D01*
X130039828Y-84534434D01*
X129640671Y-84135277D01*
X129596165Y-84189508D01*
X129502936Y-84363928D01*
X129445528Y-84553175D01*
X129426142Y-84750000D01*
X126989120Y-84750000D01*
X126990278Y-83499995D01*
X127586296Y-83499995D01*
X127586296Y-83500004D01*
X127605059Y-83678527D01*
X127605059Y-83678529D01*
X127660535Y-83849265D01*
X127750296Y-84004736D01*
X127755204Y-84010188D01*
X127755205Y-84010189D01*
X128123033Y-83642360D01*
X128164921Y-83714912D01*
X128230088Y-83780079D01*
X128302638Y-83821965D01*
X127937629Y-84186975D01*
X128015650Y-84243660D01*
X128179646Y-84316675D01*
X128179648Y-84316676D01*
X128355235Y-84353999D01*
X128355244Y-84354000D01*
X128534756Y-84354000D01*
X128534764Y-84353999D01*
X128710351Y-84316676D01*
X128710353Y-84316675D01*
X128874352Y-84243658D01*
X128952369Y-84186975D01*
X128587360Y-83821966D01*
X128659912Y-83780079D01*
X128725079Y-83714912D01*
X128766966Y-83642360D01*
X129134794Y-84010188D01*
X129139703Y-84004737D01*
X129229464Y-83849265D01*
X129284940Y-83678529D01*
X129284940Y-83678527D01*
X129303704Y-83500004D01*
X129303704Y-83499995D01*
X129284940Y-83321472D01*
X129284940Y-83321470D01*
X129229464Y-83150734D01*
X129139704Y-82995263D01*
X129134794Y-82989810D01*
X128766965Y-83357638D01*
X128725079Y-83285088D01*
X128659912Y-83219921D01*
X128587359Y-83178032D01*
X128952369Y-82813023D01*
X128874349Y-82756339D01*
X128710353Y-82683324D01*
X128710351Y-82683323D01*
X128534764Y-82646000D01*
X128355235Y-82646000D01*
X128179648Y-82683323D01*
X128179646Y-82683324D01*
X128015645Y-82756342D01*
X127937629Y-82813024D01*
X128302638Y-83178033D01*
X128230088Y-83219921D01*
X128164921Y-83285088D01*
X128123033Y-83357639D01*
X127755204Y-82989810D01*
X127755203Y-82989810D01*
X127750298Y-82995260D01*
X127750296Y-82995263D01*
X127660535Y-83150734D01*
X127605059Y-83321470D01*
X127605059Y-83321472D01*
X127586296Y-83499995D01*
X126990278Y-83499995D01*
X126991435Y-82250000D01*
X129426142Y-82250000D01*
X129445528Y-82446824D01*
X129502936Y-82636071D01*
X129596167Y-82810494D01*
X129640672Y-82864721D01*
X130039828Y-82465565D01*
X130074901Y-82526314D01*
X130158686Y-82610099D01*
X130219432Y-82645170D01*
X129820276Y-83044327D01*
X129874505Y-83088832D01*
X129874504Y-83088832D01*
X130048928Y-83182063D01*
X130238175Y-83239471D01*
X130435000Y-83258857D01*
X130631824Y-83239471D01*
X130821071Y-83182063D01*
X130995486Y-83088836D01*
X130995495Y-83088830D01*
X131049721Y-83044326D01*
X130650566Y-82645171D01*
X130711314Y-82610099D01*
X130795099Y-82526314D01*
X130830171Y-82465566D01*
X131229326Y-82864721D01*
X131273830Y-82810495D01*
X131273836Y-82810486D01*
X131362479Y-82644649D01*
X131407250Y-82604514D01*
X131467345Y-82602547D01*
X131514645Y-82639668D01*
X131517521Y-82644649D01*
X131606167Y-82810494D01*
X131650672Y-82864721D01*
X132049828Y-82465565D01*
X132084901Y-82526314D01*
X132168686Y-82610099D01*
X132229432Y-82645170D01*
X131830276Y-83044327D01*
X131884505Y-83088832D01*
X131884504Y-83088832D01*
X132058928Y-83182063D01*
X132248175Y-83239471D01*
X132445000Y-83258857D01*
X132641824Y-83239471D01*
X132831071Y-83182063D01*
X133005486Y-83088836D01*
X133005495Y-83088830D01*
X133059721Y-83044326D01*
X132660566Y-82645171D01*
X132721314Y-82610099D01*
X132805099Y-82526314D01*
X132840171Y-82465566D01*
X133239326Y-82864721D01*
X133283830Y-82810495D01*
X133283836Y-82810486D01*
X133377063Y-82636071D01*
X133434471Y-82446824D01*
X133453857Y-82250000D01*
X133434471Y-82053175D01*
X133377063Y-81863928D01*
X133283832Y-81689505D01*
X133239327Y-81635276D01*
X132840170Y-82034432D01*
X132805099Y-81973686D01*
X132721314Y-81889901D01*
X132660565Y-81854828D01*
X133059721Y-81455672D01*
X133005494Y-81411167D01*
X133005495Y-81411167D01*
X132831071Y-81317936D01*
X132641824Y-81260528D01*
X132445000Y-81241142D01*
X132248175Y-81260528D01*
X132058928Y-81317936D01*
X131884508Y-81411165D01*
X131830277Y-81455671D01*
X132229434Y-81854828D01*
X132168686Y-81889901D01*
X132084901Y-81973686D01*
X132049828Y-82034434D01*
X131650671Y-81635277D01*
X131606165Y-81689508D01*
X131517521Y-81855350D01*
X131472750Y-81895485D01*
X131412655Y-81897452D01*
X131365355Y-81860331D01*
X131362479Y-81855350D01*
X131273832Y-81689505D01*
X131229327Y-81635276D01*
X130830170Y-82034432D01*
X130795099Y-81973686D01*
X130711314Y-81889901D01*
X130650565Y-81854828D01*
X131049721Y-81455672D01*
X130995494Y-81411167D01*
X130995495Y-81411167D01*
X130821071Y-81317936D01*
X130631824Y-81260528D01*
X130435000Y-81241142D01*
X130238175Y-81260528D01*
X130048928Y-81317936D01*
X129874508Y-81411165D01*
X129820277Y-81455671D01*
X130219434Y-81854828D01*
X130158686Y-81889901D01*
X130074901Y-81973686D01*
X130039828Y-82034434D01*
X129640671Y-81635277D01*
X129596165Y-81689508D01*
X129502936Y-81863928D01*
X129445528Y-82053175D01*
X129426142Y-82250000D01*
X126991435Y-82250000D01*
X126994213Y-79249995D01*
X127586296Y-79249995D01*
X127586296Y-79250004D01*
X127605059Y-79428527D01*
X127605059Y-79428529D01*
X127660535Y-79599265D01*
X127750296Y-79754736D01*
X127755204Y-79760188D01*
X127755205Y-79760189D01*
X128123033Y-79392360D01*
X128164921Y-79464912D01*
X128230088Y-79530079D01*
X128302638Y-79571965D01*
X127937629Y-79936975D01*
X128015650Y-79993660D01*
X128130286Y-80044699D01*
X128173538Y-80086467D01*
X128179823Y-80146265D01*
X128146200Y-80196113D01*
X128130286Y-80205301D01*
X128015645Y-80256342D01*
X127937629Y-80313024D01*
X128302638Y-80678033D01*
X128230088Y-80719921D01*
X128164921Y-80785088D01*
X128123033Y-80857639D01*
X127755204Y-80489810D01*
X127755203Y-80489810D01*
X127750298Y-80495260D01*
X127750296Y-80495263D01*
X127660535Y-80650734D01*
X127605059Y-80821470D01*
X127605059Y-80821472D01*
X127586296Y-80999995D01*
X127586296Y-81000004D01*
X127605059Y-81178527D01*
X127605059Y-81178529D01*
X127660535Y-81349265D01*
X127750296Y-81504736D01*
X127755204Y-81510188D01*
X127755205Y-81510189D01*
X128123033Y-81142360D01*
X128164921Y-81214912D01*
X128230088Y-81280079D01*
X128302638Y-81321965D01*
X127937629Y-81686975D01*
X128015650Y-81743660D01*
X128179646Y-81816675D01*
X128179648Y-81816676D01*
X128355235Y-81853999D01*
X128355244Y-81854000D01*
X128534756Y-81854000D01*
X128534764Y-81853999D01*
X128710351Y-81816676D01*
X128710353Y-81816675D01*
X128874352Y-81743658D01*
X128952369Y-81686975D01*
X128587360Y-81321966D01*
X128659912Y-81280079D01*
X128725079Y-81214912D01*
X128766966Y-81142360D01*
X129134794Y-81510188D01*
X129139703Y-81504737D01*
X129229464Y-81349265D01*
X129284940Y-81178529D01*
X129284940Y-81178527D01*
X129303704Y-81000004D01*
X129303704Y-80999995D01*
X129284940Y-80821472D01*
X129284940Y-80821470D01*
X129229464Y-80650734D01*
X129139704Y-80495263D01*
X129134794Y-80489810D01*
X128766965Y-80857638D01*
X128725079Y-80785088D01*
X128659912Y-80719921D01*
X128587359Y-80678032D01*
X128952369Y-80313023D01*
X128874349Y-80256339D01*
X128759714Y-80205301D01*
X128716462Y-80163533D01*
X128710177Y-80103735D01*
X128743800Y-80053887D01*
X128759714Y-80044699D01*
X128874352Y-79993658D01*
X128952369Y-79936975D01*
X128587360Y-79571966D01*
X128659912Y-79530079D01*
X128725079Y-79464912D01*
X128766966Y-79392360D01*
X129134794Y-79760188D01*
X129139703Y-79754737D01*
X129229464Y-79599265D01*
X129284940Y-79428529D01*
X129284940Y-79428527D01*
X129303704Y-79250004D01*
X129303704Y-79249995D01*
X129284940Y-79071472D01*
X129284940Y-79071470D01*
X129229464Y-78900734D01*
X129139704Y-78745263D01*
X129134794Y-78739810D01*
X128766965Y-79107638D01*
X128725079Y-79035088D01*
X128659912Y-78969921D01*
X128587359Y-78928032D01*
X128952369Y-78563023D01*
X128874349Y-78506339D01*
X128710353Y-78433324D01*
X128710351Y-78433323D01*
X128534764Y-78396000D01*
X128355235Y-78396000D01*
X128179648Y-78433323D01*
X128179646Y-78433324D01*
X128015645Y-78506342D01*
X127937629Y-78563024D01*
X128302638Y-78928033D01*
X128230088Y-78969921D01*
X128164921Y-79035088D01*
X128123033Y-79107639D01*
X127755204Y-78739810D01*
X127755203Y-78739810D01*
X127750298Y-78745260D01*
X127750296Y-78745263D01*
X127660535Y-78900734D01*
X127605059Y-79071470D01*
X127605059Y-79071472D01*
X127586296Y-79249995D01*
X126994213Y-79249995D01*
X126995852Y-77480000D01*
X133186009Y-77480000D01*
X133205949Y-77758799D01*
X133265359Y-78031901D01*
X133265362Y-78031912D01*
X133363038Y-78293792D01*
X133496991Y-78539108D01*
X133496996Y-78539115D01*
X133664493Y-78762865D01*
X133673510Y-78771883D01*
X134210316Y-78235077D01*
X134229692Y-78261746D01*
X134363254Y-78395308D01*
X134389921Y-78414683D01*
X133853116Y-78951489D01*
X133862134Y-78960506D01*
X134085884Y-79128003D01*
X134085891Y-79128008D01*
X134331207Y-79261961D01*
X134593087Y-79359637D01*
X134593098Y-79359640D01*
X134866200Y-79419050D01*
X135145000Y-79438990D01*
X135423799Y-79419050D01*
X135696901Y-79359640D01*
X135696912Y-79359637D01*
X135958792Y-79261961D01*
X136204108Y-79128008D01*
X136204115Y-79128003D01*
X136427865Y-78960506D01*
X136436883Y-78951489D01*
X135900077Y-78414683D01*
X135926746Y-78395308D01*
X136060308Y-78261746D01*
X136079683Y-78235077D01*
X136616489Y-78771883D01*
X136625506Y-78762865D01*
X136793003Y-78539115D01*
X136793008Y-78539108D01*
X136926961Y-78293792D01*
X137024637Y-78031912D01*
X137024640Y-78031901D01*
X137084050Y-77758799D01*
X137103990Y-77480000D01*
X137084050Y-77201200D01*
X137024640Y-76928098D01*
X137024637Y-76928087D01*
X136926961Y-76666207D01*
X136793008Y-76420891D01*
X136793003Y-76420884D01*
X136625506Y-76197134D01*
X136616489Y-76188116D01*
X136079683Y-76724921D01*
X136060308Y-76698254D01*
X135926746Y-76564692D01*
X135900077Y-76545316D01*
X136436883Y-76008510D01*
X136427865Y-75999493D01*
X136204115Y-75831996D01*
X136204108Y-75831991D01*
X135958792Y-75698038D01*
X135696912Y-75600362D01*
X135696901Y-75600359D01*
X135423799Y-75540949D01*
X135145000Y-75521009D01*
X134866200Y-75540949D01*
X134593098Y-75600359D01*
X134593087Y-75600362D01*
X134331207Y-75698038D01*
X134085891Y-75831991D01*
X134085884Y-75831996D01*
X133862134Y-75999493D01*
X133853116Y-76008510D01*
X134389922Y-76545316D01*
X134363254Y-76564692D01*
X134229692Y-76698254D01*
X134210316Y-76724922D01*
X133673510Y-76188116D01*
X133664493Y-76197134D01*
X133496996Y-76420884D01*
X133496991Y-76420891D01*
X133363038Y-76666207D01*
X133265362Y-76928087D01*
X133265359Y-76928098D01*
X133205949Y-77201200D01*
X133186009Y-77480000D01*
X126995852Y-77480000D01*
X126999910Y-73097819D01*
X127020527Y-73041337D01*
X127072626Y-73011321D01*
X127087810Y-73010000D01*
X139619410Y-73010000D01*
X139620642Y-73010009D01*
G37*
%TD.AperFunction*%
%TD*%
M02*
