%TF.GenerationSoftware,KiCad,Pcbnew,8.0.4*%
%TF.CreationDate,2024-12-07T18:54:13+01:00*%
%TF.ProjectId,usb_c_cable_tester,7573625f-635f-4636-9162-6c655f746573,2.2*%
%TF.SameCoordinates,Original*%
%TF.FileFunction,Paste,Top*%
%TF.FilePolarity,Positive*%
%FSLAX46Y46*%
G04 Gerber Fmt 4.6, Leading zero omitted, Abs format (unit mm)*
G04 Created by KiCad (PCBNEW 8.0.4) date 2024-12-07 18:54:13*
%MOMM*%
%LPD*%
G01*
G04 APERTURE LIST*
G04 Aperture macros list*
%AMRoundRect*
0 Rectangle with rounded corners*
0 $1 Rounding radius*
0 $2 $3 $4 $5 $6 $7 $8 $9 X,Y pos of 4 corners*
0 Add a 4 corners polygon primitive as box body*
4,1,4,$2,$3,$4,$5,$6,$7,$8,$9,$2,$3,0*
0 Add four circle primitives for the rounded corners*
1,1,$1+$1,$2,$3*
1,1,$1+$1,$4,$5*
1,1,$1+$1,$6,$7*
1,1,$1+$1,$8,$9*
0 Add four rect primitives between the rounded corners*
20,1,$1+$1,$2,$3,$4,$5,0*
20,1,$1+$1,$4,$5,$6,$7,0*
20,1,$1+$1,$6,$7,$8,$9,0*
20,1,$1+$1,$8,$9,$2,$3,0*%
G04 Aperture macros list end*
%ADD10R,1.350000X0.400000*%
%ADD11O,1.900000X1.100000*%
%ADD12C,1.250000*%
%ADD13RoundRect,0.218750X-0.218750X-0.256250X0.218750X-0.256250X0.218750X0.256250X-0.218750X0.256250X0*%
%ADD14RoundRect,0.200000X-0.200000X-0.275000X0.200000X-0.275000X0.200000X0.275000X-0.200000X0.275000X0*%
%ADD15R,2.200000X0.500000*%
%ADD16R,2.200000X2.000000*%
%ADD17R,0.700000X0.300000*%
%ADD18RoundRect,0.250000X-0.475000X0.250000X-0.475000X-0.250000X0.475000X-0.250000X0.475000X0.250000X0*%
%ADD19C,1.500000*%
%ADD20C,1.200000*%
%ADD21C,3.400000*%
%ADD22R,3.800000X4.200000*%
%ADD23C,1.300000*%
%ADD24O,2.700000X1.300000*%
%ADD25O,2.400000X1.300000*%
G04 APERTURE END LIST*
D10*
%TO.C,J3*%
X138450000Y-98300000D03*
X138450000Y-97650000D03*
X138450000Y-97000000D03*
X138450000Y-96350000D03*
X138450000Y-95700000D03*
D11*
X141100000Y-100600000D03*
D12*
X138450000Y-99500000D03*
X138450000Y-94500000D03*
D11*
X141100000Y-93400000D03*
%TD*%
D13*
%TO.C,D21*%
X65250000Y-121750000D03*
X66825000Y-121750000D03*
%TD*%
D14*
%TO.C,R4*%
X77175000Y-113709086D03*
X78825000Y-113709086D03*
%TD*%
D15*
%TO.C,J5*%
X135050000Y-120100000D03*
X135050000Y-119300000D03*
X135050000Y-118500000D03*
X135050000Y-117700000D03*
X135050000Y-116900000D03*
D16*
X135450000Y-122950000D03*
X140950000Y-122950000D03*
X135450000Y-114050000D03*
X140950000Y-114050000D03*
%TD*%
D14*
%TO.C,R25*%
X77175000Y-74600000D03*
X78825000Y-74600000D03*
%TD*%
D13*
%TO.C,D25*%
X77212500Y-76173913D03*
X78787500Y-76173913D03*
%TD*%
D14*
%TO.C,R7*%
X120135000Y-78945454D03*
X121785000Y-78945454D03*
%TD*%
%TO.C,R20*%
X120135000Y-87636362D03*
X121785000Y-87636362D03*
%TD*%
%TO.C,R16*%
X120135000Y-91981816D03*
X121785000Y-91981816D03*
%TD*%
D13*
%TO.C,D11*%
X77212500Y-102260869D03*
X78787500Y-102260869D03*
%TD*%
%TO.C,D8*%
X120212500Y-84869565D03*
X121787500Y-84869565D03*
%TD*%
D14*
%TO.C,R8*%
X120135000Y-83290908D03*
X121785000Y-83290908D03*
%TD*%
%TO.C,R17*%
X120135000Y-105018178D03*
X121785000Y-105018178D03*
%TD*%
%TO.C,R5*%
X120135000Y-118054540D03*
X121785000Y-118054540D03*
%TD*%
D17*
%TO.C,J2*%
X65310000Y-106240000D03*
X65310000Y-106740000D03*
X65310000Y-107240000D03*
X65310000Y-107740000D03*
X65310000Y-108240000D03*
X65310000Y-108740000D03*
X65310000Y-109240000D03*
X65310000Y-109740000D03*
X65310000Y-110240000D03*
X65310000Y-110740000D03*
X65310000Y-111240000D03*
X65310000Y-111740000D03*
%TD*%
D13*
%TO.C,D5*%
X120212500Y-119652173D03*
X121787500Y-119652173D03*
%TD*%
%TO.C,D9*%
X77212500Y-80521739D03*
X78787500Y-80521739D03*
%TD*%
D18*
%TO.C,C1*%
X94500000Y-87050000D03*
X94500000Y-88950000D03*
%TD*%
D13*
%TO.C,D12*%
X120212500Y-97913043D03*
X121787500Y-97913043D03*
%TD*%
%TO.C,D16*%
X120212500Y-93565217D03*
X121787500Y-93565217D03*
%TD*%
D14*
%TO.C,R24*%
X77175000Y-122400000D03*
X78825000Y-122400000D03*
%TD*%
D13*
%TO.C,D10*%
X77212500Y-84869565D03*
X78787500Y-84869565D03*
%TD*%
%TO.C,D4*%
X77212500Y-115304347D03*
X78787500Y-115304347D03*
%TD*%
D14*
%TO.C,R14*%
X120135000Y-100672724D03*
X121785000Y-100672724D03*
%TD*%
D13*
%TO.C,D14*%
X120212500Y-102260869D03*
X121787500Y-102260869D03*
%TD*%
D14*
%TO.C,R1*%
X77175000Y-109363632D03*
X78825000Y-109363632D03*
%TD*%
D17*
%TO.C,J1*%
X134250000Y-109500000D03*
X134250000Y-109000000D03*
X134250000Y-108500000D03*
X134250000Y-108000000D03*
X134250000Y-107500000D03*
X134250000Y-107000000D03*
X134250000Y-106500000D03*
X134250000Y-106000000D03*
X134250000Y-105500000D03*
X134250000Y-105000000D03*
X134250000Y-104500000D03*
X134250000Y-104000000D03*
%TD*%
D14*
%TO.C,R13*%
X77175000Y-96327270D03*
X78825000Y-96327270D03*
%TD*%
D13*
%TO.C,D2*%
X77212500Y-89217391D03*
X78787500Y-89217391D03*
%TD*%
%TO.C,D15*%
X77212500Y-106608695D03*
X78787500Y-106608695D03*
%TD*%
D19*
%TO.C,J4*%
X130435000Y-82250000D03*
X130435000Y-84750000D03*
X132445000Y-84750000D03*
X132445000Y-82250000D03*
D20*
X128445000Y-87750000D03*
X128445000Y-86000000D03*
X128445000Y-83500000D03*
X128445000Y-81000000D03*
X128445000Y-79250000D03*
D21*
X135145000Y-89520000D03*
X135145000Y-77480000D03*
%TD*%
D13*
%TO.C,D22*%
X120212500Y-76173913D03*
X121787500Y-76173913D03*
%TD*%
D22*
%TO.C,BT1*%
X100000000Y-87110000D03*
X100000000Y-115890000D03*
%TD*%
D14*
%TO.C,R18*%
X77175000Y-91981816D03*
X78825000Y-91981816D03*
%TD*%
%TO.C,R23*%
X120175000Y-122400000D03*
X121825000Y-122400000D03*
%TD*%
D13*
%TO.C,D6*%
X120212500Y-115304347D03*
X121787500Y-115304347D03*
%TD*%
D23*
%TO.C,J6*%
X66000000Y-88500000D03*
X66000000Y-91000000D03*
X66000000Y-93000000D03*
X66000000Y-95500000D03*
X67500000Y-96000000D03*
X67500000Y-94000000D03*
X67500000Y-92000000D03*
X67500000Y-90000000D03*
X67500000Y-88000000D03*
D24*
X66500000Y-85600000D03*
D25*
X59900000Y-85600000D03*
D24*
X66500000Y-98400000D03*
D25*
X59900000Y-98400000D03*
%TD*%
D13*
%TO.C,D20*%
X120212500Y-89217391D03*
X121787500Y-89217391D03*
%TD*%
D14*
%TO.C,R2*%
X77175000Y-87636362D03*
X78825000Y-87636362D03*
%TD*%
D13*
%TO.C,D17*%
X120212500Y-106608695D03*
X121787500Y-106608695D03*
%TD*%
D14*
%TO.C,R10*%
X77175000Y-83290908D03*
X78825000Y-83290908D03*
%TD*%
%TO.C,R3*%
X77175000Y-118054540D03*
X78825000Y-118054540D03*
%TD*%
D13*
%TO.C,D23*%
X120212500Y-124000000D03*
X121787500Y-124000000D03*
%TD*%
D14*
%TO.C,R19*%
X120135000Y-109363632D03*
X121785000Y-109363632D03*
%TD*%
%TO.C,R12*%
X120135000Y-96327270D03*
X121785000Y-96327270D03*
%TD*%
%TO.C,R9*%
X77175000Y-78945454D03*
X78825000Y-78945454D03*
%TD*%
D13*
%TO.C,D1*%
X77212500Y-110956521D03*
X78787500Y-110956521D03*
%TD*%
D14*
%TO.C,R22*%
X120175000Y-74600000D03*
X121825000Y-74600000D03*
%TD*%
D13*
%TO.C,D19*%
X120212500Y-110956521D03*
X121787500Y-110956521D03*
%TD*%
D14*
%TO.C,R15*%
X77175000Y-105018178D03*
X78825000Y-105018178D03*
%TD*%
D13*
%TO.C,D7*%
X120212500Y-80521739D03*
X121787500Y-80521739D03*
%TD*%
D14*
%TO.C,R21*%
X65212500Y-120000000D03*
X66862500Y-120000000D03*
%TD*%
D13*
%TO.C,D3*%
X77212500Y-119652173D03*
X78787500Y-119652173D03*
%TD*%
%TO.C,D24*%
X77212500Y-124000000D03*
X78787500Y-124000000D03*
%TD*%
%TO.C,D13*%
X77212500Y-97913043D03*
X78787500Y-97913043D03*
%TD*%
D14*
%TO.C,R6*%
X120135000Y-113709086D03*
X121785000Y-113709086D03*
%TD*%
%TO.C,R11*%
X77175000Y-100672724D03*
X78825000Y-100672724D03*
%TD*%
D13*
%TO.C,D18*%
X77212500Y-93565217D03*
X78787500Y-93565217D03*
%TD*%
M02*
