M48
; DRILL file {KiCad 7.0.8} date 2024 May 30, Thursday 14:18:43
; FORMAT={-:-/ absolute / inch / decimal}
; #@! TF.CreationDate,2024-05-30T14:18:43+02:00
; #@! TF.GenerationSoftware,Kicad,Pcbnew,7.0.8
; #@! TF.FileFunction,Plated,1,2,PTH
FMAT,2
INCH
; #@! TA.AperFunction,Plated,PTH,ViaDrill
T1C0.0079
; #@! TA.AperFunction,Plated,PTH,ComponentDrill
T2C0.0157
; #@! TA.AperFunction,Plated,PTH,ComponentDrill
T3C0.0197
; #@! TA.AperFunction,Plated,PTH,ComponentDrill
T4C0.0197
; #@! TA.AperFunction,Plated,PTH,ComponentDrill
T5C0.0217
; #@! TA.AperFunction,Plated,PTH,ComponentDrill
T6C0.0276
; #@! TA.AperFunction,Plated,PTH,ComponentDrill
T7C0.0354
; #@! TA.AperFunction,Plated,PTH,ComponentDrill
T8C0.0945
; #@! TA.AperFunction,Plated,PTH,ComponentDrill
T9C0.1969
%
G90
G05
T1
X2.5236Y-4.7913
X2.7126Y-4.1024
X2.7126Y-4.4803
X2.7362Y-4.1181
X2.7362Y-4.4646
X2.7598Y-4.1024
X2.7598Y-4.4803
X2.7835Y-4.1181
X2.7835Y-4.4646
X2.8071Y-4.1024
X2.8071Y-4.4803
X2.811Y-3.4646
X2.815Y-3.5197
X2.8307Y-3.5512
X2.8307Y-4.1181
X2.8307Y-4.4646
X2.8504Y-4.3661
X2.8504Y-4.3937
X2.8504Y-4.4213
X2.8661Y-3.7165
X2.8976Y-3.7913
X2.9016Y-4.0709
X2.9055Y-3.7559
X2.9055Y-4.2283
X2.9094Y-4.2638
X2.9213Y-3.5827
X2.9213Y-3.622
X2.9252Y-4.3465
X2.9291Y-4.0748
X2.937Y-4.2677
X2.9409Y-4.1024
X2.9449Y-4.2953
X2.9488Y-4.1339
X2.9567Y-4.7717
X2.9961Y-3.1693
X2.9961Y-4.8819
X3.0039Y-3.3425
X3.0394Y-3.5551
X3.0394Y-3.5827
X3.0394Y-3.7283
X3.0394Y-3.8937
X3.0394Y-4.0669
X3.0394Y-4.2362
X3.0394Y-4.4094
X3.0394Y-4.5827
X3.0433Y-3.0433
X3.1732Y-4.6811
X3.1929Y-3.6496
X3.2008Y-3.7559
X3.2087Y-3.8425
X3.2441Y-4.815
X3.2913Y-4.7756
X3.3425Y-4.7638
X3.7205Y-3.5472
X3.937Y-4.4646
X4.6693Y-4.4803
X4.6772Y-3.1063
X4.6772Y-3.2795
X4.6772Y-3.4488
X4.6772Y-3.622
X4.6772Y-3.7913
X4.685Y-2.937
X4.685Y-3.9646
X4.685Y-4.1339
X4.685Y-4.6535
X4.685Y-4.8189
X4.6969Y-4.311
X4.7323Y-3.0472
X4.7323Y-3.2165
X4.7323Y-3.3858
X4.7323Y-3.5551
X4.7323Y-3.7283
X4.7323Y-3.9016
X4.7323Y-4.0709
X4.7323Y-4.2402
X4.7323Y-4.4094
X4.7323Y-4.5827
X4.7323Y-4.752
X4.7323Y-4.9252
T2
X2.4921Y-4.1965
X2.4921Y-4.228
X2.4921Y-4.2594
X2.4921Y-4.3224
X2.4921Y-4.3539
X2.4921Y-4.3854
X2.5197Y-4.1807
X2.5197Y-4.2437
X2.5197Y-4.2752
X2.5197Y-4.3067
X2.5197Y-4.3382
X2.5197Y-4.4012
X5.337Y-4.0925
X5.337Y-4.1555
X5.337Y-4.187
X5.337Y-4.2185
X5.337Y-4.25
X5.337Y-4.313
X5.3646Y-4.1083
X5.3646Y-4.1398
X5.3646Y-4.1713
X5.3646Y-4.2343
X5.3646Y-4.2657
X5.3646Y-4.2972
T6
X2.5984Y-3.4843
X2.5984Y-3.5827
X2.5984Y-3.6614
X2.5984Y-3.7598
X2.6575Y-3.4646
X2.6575Y-3.5433
X2.6575Y-3.622
X2.6575Y-3.7008
X2.6575Y-3.7795
X5.0569Y-3.1201
X5.0569Y-3.189
X5.0569Y-3.2874
X5.0569Y-3.3858
X5.0569Y-3.4547
T7
X5.1352Y-3.2382
X5.1352Y-3.3366
X5.2144Y-3.2382
X5.2144Y-3.3366
T8
X5.3207Y-3.0504
X5.3207Y-3.5244
T9
X2.4213Y-3.0413
T3
G00X5.5325Y-3.6811
M15
G01X5.5581Y-3.6811
M16
G05
G00X5.5325Y-3.9567
M15
G01X5.5581Y-3.9567
M16
G05
T4
G00X2.3346Y-4.1142
M15
G01X2.311Y-4.1142
M16
G05
G00X2.3346Y-4.4677
M15
G01X2.311Y-4.4677
M16
G05
G00X2.5079Y-4.1283
M15
G01X2.4843Y-4.1283
M16
G05
G00X2.5079Y-4.4535
M15
G01X2.4843Y-4.4535
M16
G05
G00X5.3488Y-4.0402
M15
G01X5.3724Y-4.0402
M16
G05
G00X5.3488Y-4.3654
M15
G01X5.3724Y-4.3654
M16
G05
G00X5.522Y-4.026
M15
G01X5.5457Y-4.026
M16
G05
G00X5.522Y-4.3795
M15
G01X5.5457Y-4.3795
M16
G05
T5
G00X5.439Y-3.7264
M15
G01X5.439Y-3.7146
M16
G05
G00X5.439Y-3.9232
M15
G01X5.439Y-3.9114
M16
G05
T6
G00X2.3799Y-3.3701
M15
G01X2.3366Y-3.3701
M16
G05
G00X2.3799Y-3.874
M15
G01X2.3366Y-3.874
M16
G05
G00X2.6496Y-3.3701
M15
G01X2.5866Y-3.3701
M16
G05
G00X2.6496Y-3.874
M15
G01X2.5866Y-3.874
M16
G05
T0
M30
